<?xml version="1.0" encoding="utf-8"?>
<!-- Generator: Adobe Illustrator 27.9.1, SVG Export Plug-In . SVG Version: 6.00 Build 0)  -->
<svg version="1.1" xmlns="http://www.w3.org/2000/svg" xmlns:xlink="http://www.w3.org/1999/xlink" x="0px" y="0px"
	 viewBox="0 0 322 260" style="enable-background:new 0 0 322 260;" xml:space="preserve">
<style type="text/css">
	.st0{display:none;}
	.st1{fill:none;stroke:#000000;stroke-miterlimit:10;}
</style>
<g id="Layer_1" class="st0">
	
		<image style="display:inline;overflow:visible;" width="729" height="463" xlink:href="../../../../sample content/illustrator qti files/impl3image20.png"  transform="matrix(0.7324 0 0 0.7324 -65.6422 -67.9347)">
	</image>
</g>
<g id="Layer_2">
	<polyline class="st1" points="223.3,172.4 83,172.4 188.8,71.3 	"/>
	<circle cx="189" cy="71.3" r="1.9"/>
	<circle cx="83" cy="172.4" r="1.9"/>
	<circle cx="223.3" cy="172.4" r="1.9"/>
	<g>
		<path d="M77.2,172.9c0,2.2-0.8,3.8-2,4.7c0.4,0.5,0.8,1,1.2,1.5l-1.6,0.9c-0.3-0.4-0.7-1-1.1-1.6c-0.5,0.1-1,0.2-1.6,0.2
			c-3.1,0-5-2.3-5-5.5c0-3.3,2.1-5.7,5.1-5.7C75.4,167.4,77.2,169.8,77.2,172.9z M69.2,173c0,2.2,1.1,4,3,4c0.2,0,0.4,0,0.6-0.1
			c-0.2-0.4-0.4-0.8-0.6-1.2l1.4-0.8c0.2,0.4,0.4,0.7,0.6,1.1c0.6-0.7,1-1.8,1-3.1c0-2-1-4-3-4C70.2,169,69.2,170.8,69.2,173z"/>
	</g>
	<g>
		<path d="M187.6,55.3c0.7-0.1,1.7-0.2,3-0.2c1.4,0,2.5,0.3,3.2,0.9c0.6,0.5,1.1,1.4,1.1,2.4c0,1-0.3,1.9-0.9,2.4
			c-0.8,0.8-2,1.2-3.4,1.2c-0.4,0-0.7,0-1-0.1V66h-2V55.3z M189.5,60.3c0.3,0.1,0.6,0.1,1,0.1c1.5,0,2.4-0.7,2.4-2
			c0-1.2-0.8-1.8-2.2-1.8c-0.5,0-0.9,0-1.1,0.1V60.3z"/>
	</g>
	<g>
		<path d="M219.9,177.7c0.8-0.1,1.8-0.2,3-0.2c1.6,0,2.6,0.3,3.3,0.9c0.6,0.5,0.9,1.2,0.9,2.2c0,1.4-0.9,2.3-2,2.7v0
			c0.8,0.3,1.2,1,1.5,2.1c0.4,1.3,0.6,2.6,0.8,3h-2c-0.2-0.3-0.4-1.2-0.7-2.5c-0.3-1.4-0.8-1.9-1.9-1.9h-1v4.4h-2V177.7z
			 M221.9,182.5h1.2c1.3,0,2.1-0.7,2.1-1.8c0-1.2-0.8-1.7-2.1-1.7c-0.6,0-1,0-1.2,0.1V182.5z"/>
	</g>
</g>
</svg>
