<?xml version="1.0" encoding="utf-8"?>
<!-- Generator: Adobe Illustrator 27.9.1, SVG Export Plug-In . SVG Version: 6.00 Build 0)  -->
<svg version="1.1" id="Layer_2" xmlns="http://www.w3.org/2000/svg" xmlns:xlink="http://www.w3.org/1999/xlink" x="0px" y="0px"
	 viewBox="0 0 206 280" style="enable-background:new 0 0 206 280;" xml:space="preserve">
<style type="text/css">
	.st0{fill:#FFFFFF;stroke:#000000;stroke-width:2;stroke-linecap:round;stroke-linejoin:round;stroke-miterlimit:10;}
</style>
<path class="st0" d="M61.5,28.3c0.1-0.4,0.3-0.9,0.2-1.3c-0.2-0.7,0.4-1.4-0.4-2.1c-0.2-0.1,0-1.2,0.3-1.4c0.3-0.2,1-0.1,1.5,0
	c0.6,0.2,1.1,0.5,1.5,0.6c0-0.8,0.1-1.3,0.1-1.9c-0.8-1.1-1.6-2.1-2.3-3.3c-0.1-0.1,0.2-0.7,0.5-0.9c0.2-0.2,0.7-0.2,0.9,0
	c1.4,0.9,2.5-0.2,3.8-0.3c-0.5-1.2-0.9-2.3-1.3-3.5c-0.1-0.2,0-0.5,0.1-0.6c0.8-0.8,1.5-1.6,2.3-2.4c-1.1-0.5-1.2-2.1-0.5-2.8
	c0.9-0.9,1.3-1.9,1.3-3.1c0-0.2,0.1-0.4,0.3-0.8c1.3,0.5,2.6,1,3.9,1.6c0,0,0.4-0.3,0.5-0.3c0.9,0.7,1.7,1.4,2.5,2.1
	c0.2-0.7,0.5-1.9,1.9-1.4c0.9,0.3,1.7,0.9,2.9,1.6c1.2-0.1,3,0.1,4.3-1.5c0.2,0.1,0.5,0.3,0.8,0.4c0.2-0.2,0.4-0.3,0.5-0.6
	c0.4-0.7,1-0.7,1.3-0.1c0.4,0.8,1.1,0.7,1.7,0.7c1.4-0.1,2.7-0.6,3.7-1.6c0.8-0.7,1.6-0.4,2.5-0.2C97,5.5,98,5.7,98.8,5.9
	c-0.1-0.7-0.3-1.2-0.2-1.7c0.1-0.5,0.6-1,1.2-0.5c1.1,0.9,2.4,0.2,3.2,0.6c0.5-0.6,0.9-1.5,1.2-1.5c0.8,0,0.8,0.8,0.5,1.4
	c0.1,0.1,0.1,0.1,0.2,0.1c1.8,0.1,2.1,0.5,1.3,2.2c-0.4,0.8-1,1.6-1.4,2.4c-0.5,0.9-0.3,1.2,0.7,1.3c0.7,0.1,1.1,0.5,0.8,1.2
	c-0.6,1.3-1.3,2.5-2,3.7c-0.8,1.4-2.2,2-3.6,2.7c-0.5,0.3-1.1,0.6-1.5,1.1c-1.6,2.6-4,4.5-6.4,6.3c-0.4,0.3-0.7,0.6-1.1,0.9
	c-0.8,0.7-1.7,1.3-2.4,2.1c-0.5,0.5-1.1,1.2-0.8,2.1c0.3,0.8-0.4,1.5-1.6,2.1c0.4,0,0.7,0,1.1-0.1c0.6-0.3,1.2-0.4,1.7,0.2
	c0.1,0.1,0.4,0,0.6-0.1c0.3-0.2,0.5-0.6,0.8-0.8c0.3-0.2,0.8-0.3,1.1-0.4c0,0.4,0.2,0.9,0.1,1.2c-0.7,1.2-1.5,2.4-2.3,3.5
	c-0.5,0.7-1.3,1.2-1.8,1.9c-0.5,0.7-0.7,1.5-1.1,2.4c1.2,0,2.4,0,3.5,0c0.2,0,0.4-0.2,0.6-0.4c1.2-1.3,2.8-1.8,4.5-2.1
	c0.3-0.1,0.7-0.2,0.9-0.4c1.4-1.5,3.1-1.5,5-0.9c1.3,0.4,2.6,0.8,3.9,1.1c0.4,0.1,0.9,0,1.3-0.2c1.3-0.7,2.5-0.6,3.9-0.4
	c2.2,0.4,4.4,0.8,6.6,0.7c1.2,0,2.4-0.3,3.7-0.1c0.2,0,0.5,0,0.8-0.2c1.7-0.8,3.8-0.2,5.1,1.3c0.9,0.9,1.3,2,1.5,3.2
	c0.1,0.8,0.7,1.5,1,2.2c-0.1,0.3-0.1,0.7-0.3,1c-0.5,0.9-0.9,1.8-1.5,2.6c-1.3,1.8-2.9,3.5-3.6,5.7c-0.2,0.7-0.4,1.6-0.2,2.3
	c0.3,1.6-0.4,2.9-1.2,4.2c-0.6,1-0.8,2-1,3.2c-0.2,1.2-0.9,2.4-1.6,3.5c-0.6,0.9-1.6,1.5-2.3,2.3c-0.3,0.3-0.4,0.8-0.5,1.2
	c-0.1,0.3-0.1,0.7-0.3,1.1c-0.4,1-1,1.8-1.1,3c-0.1,0.7-1.1,1.3-1.7,1.9c-0.7,0.7-1.5,1.5-2.3,2.1c-0.5,0.3-1.2,0.3-1.8,0.5
	c0,0.9,0,1.9,0,3c0.8,0.3,1.7,0.6,2.4,1c0.6,0.3,1.3,0.8,1.6,1.4c0.3,0.8-0.2,1.5-1,2.1c-1.6,1.2-3.3,1.7-5.3,1.3
	c-0.4-0.1-1,0.4-1.5,0.8c-1.3,1-2.4,2.1-2.7,3.6c-1.5,0.4-2.8,0.8-4.2,1.2c2.1,0.5,4,1,6,1.5c0.8,0.2,2.8-0.8,3-1.8
	c0.3-1.2,1-1.6,2-1.8c1.3-0.3,3.6,0.1,4,1.6c1.2,0.6,2.3,1,3.2,1.6c1.1,0.7,2.1,1.4,3.5,1.5c1.2,0.1,1.9,1.2,2.2,2.3
	c0.6,2.1,2.1,3.5,3.5,5c0.1,0.1,0.5,0.1,0.7,0.1c1,0,1.3,0.3,1.4,1.4c0,0.5,0.1,1,0.9,1.1c1.4,0.3,1.8,1.6,2.1,2.8
	c0.3,1.3,0.7,2.5,0.5,3.9c-0.1,0.9,0.5,1.9,0.5,2.8c0,1.5,0.7,2.9,0.8,4.3c0.1,1.5,0.5,2.8,1.2,4c1.2,2.2,1.8,4.6,2.2,7.1
	c0.3,1.8,1.1,3.4,2.9,4c-0.1,0.7-0.3,1.4-0.3,1.8c0.6,0.1,1.1,0,1.6,0.2c1.7,0.7,3.4,1.5,5.2,2.2c3.6,1.4,6,3.8,7.1,7.6
	c0.5,1.9,1,2.3,2.8,3.2c-0.2,1.1,0.5,1.5,1.4,1.8c0.6,0.2,1.2,0.6,1.8,1c0.5,0.4,0.4,0.7-0.2,1c-1.9,0.9-2.2,1.6-1.8,3.6
	c0.6,2.7,2.4,4.8,3.8,7c0.8,1.3,1.5,2.7,2.3,4.1c0.2,0.3,0.2,0.8,0.1,1.1c-0.1,0.3-0.5,0.5-0.7,0.8c-0.2-0.2-0.4-0.5-0.5-0.7
	c-0.2-0.4-0.2-0.9-0.4-1.4c-1.6,0.9-3.1,0.5-4.4-0.3c0,0.1-0.1,0.2-0.1,0.2c0.9,0.6,1.9,1.1,2.6,1.9c1.8,1.8,4.3,2.8,5.3,5.4
	c0.8,2,1.6,3.9,2.1,6c0.4,1.8-0.4,3.4-1.8,4.6c-1.3,1.2-2.6,2.5-4.1,3.9c1.7,0.3,2.3,1.7,3.3,2.5c0.3,0.2,0.6,0.4,1,0.4
	c0.4,0.1,0.9,0.1,1.5,0.1c0.4-0.9,0.8-2.2,1.3-3.4c0.7-1.5,1.5-1.9,3.1-1.7c0.2,0,0.4-0.1,0.7-0.2c0.4-0.1,0.8-0.2,1.3-0.2
	c1.3,0.1,2.7,0.8,3.7,0.4c1.5-0.6,2.7,0.1,3.9,0.4c1.4,0.3,2.8,0.6,4,1.2c1,0.5,1.8,1.5,2.9,2.1c2.5,1.4,3.7,3.6,4.2,6.3
	c0.5,2.5,0.9,5-0.1,7.5c-0.6,1.5-1.2,2.9-1.7,4.4c-0.3,0.9-0.2,1.8-0.4,2.7c-0.3,1.6-1,2.8-2.6,3.4c-0.3,0.1-0.5,0.4-0.7,0.7
	c-0.5,0.6-0.9,1.3-1.4,2c-0.1,0.2-0.4,0.3-0.6,0.4c-0.5,0.2-1.1,0.5-1.6,0.8c1,0.4,1,1,0.6,1.8c-0.8,1.6-2.8,2.6-4.6,2.4
	c-0.5-0.1-1.1,0-1.9,0c0.9,1.3,1,2.3,0.5,3.3c-0.1,0.2,0,0.5,0,0.7c0,0.3,0,0.6-0.2,0.8c-1.2,1.6-2.7,2.6-4.8,2.4
	c-0.4,0-0.9,0.1-1.4,0.2c0.8,0.5,2,0.2,2.2,1.5c2.3-0.3,3.9,0.6,4.1,2.5c0.9-0.2,1.7-0.3,2.5-0.5c1.8-0.3,3.6-0.6,5.4-0.8
	c0.4,0,1.3,0.2,1.3,0.4c0.1,0.5-0.1,1.1-0.3,1.7c-0.1,0.3-0.5,0.4-0.6,0.7c-0.1,0.3-0.3,0.8-0.2,1.1c1.2,2.6-0.2,4.4-2.3,5.3
	c-0.7,0.3-1.5,0.5-2.3,0.6c-2.3,0.6-3.4,2.4-2.9,5c-1.1-0.1-2.3-0.3-3.4-0.4c-0.9-0.1-1.6,0.3-2.1,1.1c-0.2,0.3-0.5,0.4-0.8,0.6
	c-1.6,0.6-3.3,1-4.9,1.7c-0.6,0.2-1.2,0.8-1.6,1.4c-0.4,0.6-0.8,0.8-1.5,0.6c-2.1-0.7-4.2-1.4-6.3-2c-1.3-0.4-2.5-0.3-3.9,0
	c-2,0.5-4.1,0.8-6.2,1.3c-0.2,0-0.5,0.1-0.6,0.3c-0.9,1.1-1.4,1.2-2.6,0.4c-0.5-0.3-0.9-0.7-1.3-1c-2.2-0.3-4.7,0.6-6.6-1.9
	c0,0.6,0,0.9,0,1.3c1.3,0.4,2.6,0.9,4,1.4c0.1,0.1,0.4,0.4,0.5,0.7c0.1,0.4,0,1-0.2,1.3c-0.5,0.7-1.3,1.2-1.8,1.9
	c-0.9,1.2-2.3,1.4-3.4,0.4c-1.2-1.2-2.7-1.8-4.4-2c0.2-0.4,0.3-0.8,0.5-1.2c-0.6-0.3-1.3-0.7-1.9-0.7c-0.5,0-1.1,0.5-1.7,0.8
	c-1.3-0.7-2.5,0-2.6,1.7c0,1.2-0.6,1.8-1.8,1.7c-1.5-0.2-3-0.5-4.4-0.8c-0.8-0.1-1.6-0.3-2.4-0.4c-0.6,0-1,0.4-0.8,1
	c0.1,0.4,0.4,0.8,0.6,1.4c-0.5,0.6-1,1.2-1.6,1.8c-0.1-0.2-0.2-0.3-0.2-0.3c0.6-1.8-0.4-2.8-1.6-3.7c-1.1-0.7-2.2-1.4-3.3-2.1
	c-1.1-0.7-2.3-0.7-3.6-0.4c-1.3,0.3-2.6,0.5-3.9,0.8c-0.8,0.2-1.5,0.8-2.1,1.3c-0.7,0.5-1.3,1-2.2,0.8c-0.1,0.3-0.1,0.8-0.3,1
	c-0.9,0.7-0.8,1.6-0.8,2.6c0,0.2-0.1,0.5-0.2,0.7c-0.5,0.4-0.3,0.7,0,1.1c0.6,1,0.1,1.9-1,2.2c-0.5,0.2-1.1,0.9-1.2,1.5
	c-0.3,1.1-0.6,2-1.8,2.1c-1.3,0.1-2.6-0.3-3.3-1.5c-0.5-0.8-0.9-1.3-2-1c-1.3,0.4-1.9-0.7-2.7-1.4c-1.1,1.1-1.1,1-2.5,0.1
	c-0.4-0.3-1.2-0.2-1.7-0.1c-1,0.2-1.9,0.7-2.9,0.8c-1.1,0.1-2.2,0-3.4-0.1c0,0.2-0.1,0.6-0.3,1c-0.3,0.9-0.6,1.8-1.9,1.9
	c-0.7,0.1-1.3,1-2,1.4c-0.4,0.3-0.8,0.4-1.3,0.4c-0.2,0.3-0.4,0.5-0.5,0.8c-0.1,0.3-0.1,0.6,0.1,0.8c0.6,0.9,0.4,1.7-0.5,2.2
	c-0.8,0.5-1.6,1.2-2.4,1.8c-0.6-1-1.3-2-1.9-3.1c-0.7-1.3-1.9-1.3-3.1-1.6c-0.2,0-0.5,0.5-0.7,0.8c-0.5,0.7-0.9,1.6-2,1.6
	c-1.3,0.1-1.9-0.8-1.9-2.2c0-1.1,0.3-2.2,1.7-2.6c0.8-0.2,1.5-0.7,2.3-1c0.3-0.1,0.7,0,1,0c0.2,0,0.5,0,0.7-0.1
	c1.4-1.2,3.2-1.9,4.2-3.6c0.2-0.4,0.3-0.8,0.5-1.2c0.2-0.4,0.5-0.8,0.8-0.9c0.8-0.2,0.9-0.8,1-1.4c0.2-0.7,0.2-1.8,0.7-2.1
	c0.8-0.6,1.6-1.4,2.7-1.4c0.7,0,1.4-0.1,1.5-0.9c0.2-1.4,1.5-2,2.2-2.9c0.8-1,1.3-2.2,1.9-3.4c0.2-0.4-0.1-1-0.2-1.4
	c-0.2-0.8-0.9-1.5,0.3-2.2c0.2-0.1,0.2-0.8,0.3-1.5c1,0.2,2.1,0.4,3.2,0.7c0.7,0.2,1.1,0,1.5-0.5c0.7-0.8,1.1-1.5,0.6-2.6
	c-0.5-1.2,1-2.8,2.4-3c1.4-0.2,2.8-0.3,4.1-0.4c2-0.2,4,0,6,0.1c1.3,0,2.2,0.8,3.4,1c1.2,0.2,2.3,0.1,3.5-0.3c0.4-0.2,1-0.2,1.4-0.2
	c1.2,0,1.5-0.5,1.4-1.7c-0.1-0.7,0.2-1.5,0.4-2.2c0.6-1.8,2.3-2.7,3.5-4.1c0.1-0.1,0.3-0.2,0.5-0.3c1.6-0.9,1.8-1.2,2.9-3.4
	c-0.6,0.5-1.2,0.8-1.6,1.2c-0.9,1-2.1,1.4-3.3,1.4c-1,0-2,0.1-2.7,0.9c-0.7,0.8-1.9,1.3-1.8,2.7c0,0.2-0.4,0.5-0.7,0.6
	c-3.3,1.1-6.3,0.8-8.8-2c-0.3-0.3-0.9-0.3-1.1-0.6c-0.5-0.7-0.8-1.6-1.3-2.4c-0.2-0.4-0.5-0.8-0.9-1.2c-0.6-0.6-1.3-0.2-1.8,0.1
	c-0.1,0.1,0.1,0.8,0.2,1.2c-0.5,0-1.2-0.1-1.9,0c-0.6,0.1-1.3,0.3-1.9,0.5c-0.8,0.3-1.6,0.5-2.3-0.2c-0.6-0.6-1-1.4-0.6-2.3
	c0.4-1,1.3-0.9,2.2-1.1c-0.2,0-0.5-0.1-0.7-0.1c-1.5,0.3-2.8-0.6-2.9-2c-1.1,0.1-2.2,0.2-3.3,0.3c-1.2,0.1-1.6,0.5-1.8,1.6
	c-0.2,1-1.1,1-1.8,1c-0.9,0.1-1.6,0.2-2.3,0.9c-0.4,0.5-2.1,0.3-2.6-0.3c-0.6-0.7-1.2-1.4-1.8-2.2c-1.2,0.6-1.2-0.9-2.1-1.1
	c-0.2,0.1-0.5,0.3-0.8,0.2c-0.2-0.1-0.5-0.5-0.5-0.7c0.1-0.3,0.7-0.6,0.7-0.6c1,0.9,1.5-0.3,2.2-0.6c0.5-0.2,0.9-0.7,0.6-1.5
	c-0.3-0.7-0.8-0.7-1.4-0.7c-0.7,0-1.3,0.1-2,0.2c-0.2,0-0.5-0.1-0.6-0.3c-0.1-0.2-0.1-0.6,0-0.8c0.8-1.1,1.9-1.8,3.2-2.3
	c0.7-0.2,1.3-0.7,1.4-1.6c0-0.3,0.8-0.7,1.2-0.8c1,0,2.1,0.2,3.3,0.3c-0.1-0.4-0.1-0.6-0.1-0.6c1-0.8,1.9-1.7,2.9-2.4
	c0.5-0.4,1.3-0.6,1.9-0.7c1-0.1,1.8,0,2.6-0.9c0.7-0.8,1.8-1.3,2.8-1.9c2.2-1.2,3.1-3.2,3.5-5.5c0.2-1,0.4-1.9,0.7-3
	c-1.5-1.1-1.9-2.6-0.1-5.2c-0.8-1.2-2-2.1-1.4-3.8c0.4-1.1-0.1-1.7-1.3-1.5c-1.1,0.1-2.2,0.4-3.2,0.8c-0.5,0.3-1,1-1.2,1.7
	c-0.3,1-0.7,1.4-1.4,0.8c-1-0.9-1.9-0.2-2.8,0c-0.5,0.1-1.1,0.1-1.7,0.1c0.5-2,1.6-3.3,2.9-4.4c1.2-0.9,2.5-1.8,3.6-2.7
	c0.4-0.3,0.7-0.9,1-1.4c0.6-1.2,0.4-1.2-0.6-1.9c-1.1-0.8-1.9-2-2.8-3.1c-0.4,0-1,0.2-1.1-0.7c0-0.3-0.7-0.4-1-0.7
	c-0.4-0.3-1.1-0.5-0.6-1.2c0.4-0.6,0.7-1.2,1.6-0.7c0.1,0.1,0.3,0.1,0.4,0.1c0.1-0.6,0.2-1.3,0.3-1.9c0-0.2,0.1-0.5,0.2-0.5
	c1.2-0.4,2.4-0.8,3.7-0.9c1-0.1,1.8,0.8,2.3,1.7c0.3,0.5,0.6,1,0.8,1.5c0.2,0.4,0.5,0.5,1.1,0.4c1.6-0.5,2.3,0.3,1.8,2.1
	c1.1-0.5,2-0.9,3-1.3c-0.2-1.5,0.1-1.7,1.4-1.2c0.3,0.1,0.5,0.2,0.7,0.4c1.6,1.4,3.2,0.7,4.8,0c1.2-0.5,2.5-1.2,3.8-0.7
	c0.8,0.2,1.4,0.8,2,1.1c0.1-0.7,0.1-1.6,0.2-2.5c0.2-1.2,1.2-1.2,2.1-1.4c-0.3-0.8-0.5-1.6-0.9-2.3c-1-1.6-0.1-2.8,0.9-3.9
	c0.5-0.6,1.2-1.2,1.9-1.9c-1.2-0.1-2-0.7-2.2-1.7c-0.2-0.9-0.2-1.9-0.3-2.8c0-0.2,0.1-0.3,0.1-0.5c0.3-2.1,0.4-2.3,2.6-2.5
	c0.4-0.1,0.8-0.4,1.3-0.7c-1.5-1.2-1.5-1.9-0.4-3c1.2-1.2,1.3-1.6,0.4-3.1c-0.4,0.4-0.7,0.9-1.2,1c-0.5,0.1-1.2-0.1-1.9-0.2
	c-0.2,0.4-0.6,1.2-1.1,1.9c-0.5,0.6-1.1,1.2-1.6,1.7c-1.8-0.8-2.4-2.6-1.4-4.2c-1.8-0.5-2.9-2-3.1-3.9c-0.1-1.4-1.1-2.3-1.8-3.3
	c-0.7-1-1.4-2.1-2.1-3.2c-0.1-0.3-0.1-0.7,0-1c0.4-1.2,0.8-2.4,1.2-3.5c0-0.1,0-0.3,0.1-0.4c1.1-2.1,2.1-4.2,3.1-6.4
	c0.4-0.9,1.1-1.4,2.2-0.9c-0.2-0.2-0.4-0.4-0.7-0.6c0.3-0.4,0.6-0.8,0.9-1.3c-1.3-0.1-2.5-0.3-3.8-0.4c-0.8-0.1-1.2,0.2-1.2,1.1
	c0.1,1.6-0.4,2-2,2.2c-0.9,0.1-1.8,0.4-2.9,0.7c0,1.5-1.5,1.9-2.5,2.6c-0.3,0.2-0.9,0.3-1,0.1c-0.9-0.9-2.2,0.4-3-0.6
	c-0.4-0.5-0.8-1.1-1.2-1.7c-1.3,0.2-1.5,0.1-2.9-1.4c0.2,0.4,0.4,0.9,0.7,1.3c0.4,0.6,1.2,1,0.5,2c-0.2,0.3,0.1,1,0.1,1.5
	c0,1.6-0.5,2-2,1.4c-0.7-0.3-1.5-0.6-1.9-1.2c-1-1.3-2.3-2.1-3.7-3c-0.3-0.2-0.7-0.3-0.9-0.6c-0.5-0.4-1-0.8-1.7-0.2
	c-0.6,0.6-1,1.3-0.6,2.2c0.4,0.7,0.8,1.4,1,2.2c0.2,0.8,0.2,1.6,0.2,2.5c-1.7-0.3-2.4-0.9-2.4-2.1c0-1.7-1.3-2.5-2.1-3.6
	c-1.2-1.6-2.3-3.1-2-5.2c0.2-1.3,0.6-2.1,2.2-1.9c-0.1-2.8,1.9-4.5,3.2-6.6c0.5-0.8,0.6-1.9,0.9-2.9c0-0.1-0.1-0.3,0-0.4
	c1.4-1.1,1.4-3.5,3.5-4c0.2,0,0.3-0.8,0.2-1.2c-0.2-0.9-0.4-1.9-0.9-2.6c-0.4-0.6-1.2-0.9-1.8-1.4c-0.8-0.7-1.6-1.5-2.6-2.3
	c-0.1-0.1-0.5-0.4-0.9-0.6c-0.9-0.5-1.9-1-2.8-1.6c-0.3-0.2-0.8-0.6-0.8-0.9c-0.1-0.6-0.3-0.7-0.9-0.9c-0.7-0.2-1.2-0.7-1.9-1.1
	c0.2,0.6,0.4,1.2,0.7,1.7c0.3,0.6,0.2,0.9-0.3,1.3c-1.4,1.1-2.6,2.4-2.4,4.2c0.3,2.3-0.5,4.3-1.5,6.2c-0.1,0.1-0.1,0.3-0.1,0.4
	c1,1.8,0.9,2.6-0.6,3.8c0.3,0.2,0.5,0.4,1,0.8c-0.7,0.3-1.2,0.5-1.9,0.8c-0.1-0.9-0.3-1.2-1.1-0.9c-0.5,0.2-1.2,0.1-1.8,0
	c-1.1-0.1-1.6-1.1-1.2-2.4c0.2-0.6,0.4-1.3,0.8-1.7c1.2-1.2,1-2.7,1.2-4.2c0.3-1.7,0.7-3.5,1.2-5.2c0.2-0.6,0.6-1.1,1-1.6
	c-1.6-1.2-1.9-2.1-1-4.1c-1.3-0.4-0.9-1.6-0.9-2.4c-0.1-1.8,1-3.2,2.1-4.5c0.2-0.2,0.4-0.5,0.7-0.9c-1.4,0.1-1.5-0.2-0.9-2.1
	c-0.6-0.1-1-0.1-1,0.7c0,2.6-1.5,4.7-2.6,6.9c-0.6,1.2-1.2,2.3-1.8,3.5c-0.3,0.6-0.5,1.2-0.7,1.9c-0.5,0.1-1.1,0.1-1.7,0.2
	c0.2,0.7,0.3,1.7,0.7,2.5c0.4,0.9-0.2,1.4-0.8,1.8c-0.7,0.4-1.4,0.7-2.1,1c-0.3,0.1-0.5,0.3-0.8,0.5c-0.5,0.3-0.9,0.8-1.4,0.9
	c-0.7,0.1-1.3-0.5-1.4-1.2c0-0.5,0.4-1,0.7-1.5c0.1-0.2,0.3-0.3,0.5-0.4c-0.4-0.7-0.8-1.4-1.2-1.9c-0.3,0.5-0.6,1.1-1.1,1.6
	c-0.5,0.6-1.3,0.9-2,0.2c-0.7-0.7-0.5-1.6,0-2.1c0.7-0.7,0.7-1.4,0.6-2.1c-0.2-1.7,1.3-2.6,2.6-2.8c0.9-0.2,1.7-0.9,2.5-1.4
	c1-0.7,1.6-0.7,2,0.3c0.1-0.1,0.2-0.2,0.3-0.3c0.6-0.7,1.2-1.3,1.6-2.2c0.8-2,2.6-3.2,4.3-4.4c0.1,0,0.1-0.1,0.1-0.1
	c-0.5-1.3,0.1-2.8,1.2-2.9c0.1-0.8,0.1-1.7,0.3-2.5c0.1-0.4,0.7-0.6,1.1-0.8c0.2-0.2,0.5-0.3,0.6-0.5c0.1-0.1-0.1-0.4-0.3-0.6
	c-0.5-0.6-0.3-1.3,0.4-1.6c0.4-0.1,0.9-0.1,1.3-0.3c0.6-0.2,0.7-1.2,0.3-1.9c-0.8,0.3-1.3,1.5-2.4,1c0.2-0.5,0.3-1.1,0.5-1.6
	c-0.6,0.2-1.2,0.5-1.8,0.8c0.5,0.3,0.9,0.6,1.4,0.9c-0.5,1.5-0.7,3.1-2,4.1c-0.9,0.8-2,1.1-3.2,0.6c-0.2-0.1-0.5,0-0.7,0.1
	c-1.5,0.7-3,1.3-4.7,1.2c-0.3,0-0.6,0.2-0.8,0.4c-0.9,0.6-2.1,0.3-2.4-0.7c-0.1-0.2-0.2-0.4-0.2-0.5c-0.5,0-1,0.2-1.1,0.1
	c-0.2-0.3-0.3-0.9-0.2-1.2c0.1-0.3,0.6-0.7,0.9-0.7c0.8,0,1.7,0.2,2.5,0.2c0.3,0,0.6-0.3,0.6-0.5c0.4-0.9,0.8-1.7,1.2-2.5
	c-0.5-0.3-1.1-0.6-1.6-0.9c-0.1-0.1-0.2-0.1-0.3-0.2c-1.2-0.2-1.3-0.2-0.5-1.3c-0.9-0.3-0.8-0.8-0.8-1.7c0.1-1.3,0.5-1.9,1.8-2.2
	c0.4-0.1,0.6-0.7,1-0.9c1-0.5,2.4,0,3.2,0.9c0.2-0.4,0.4-0.8,0.6-1.3c-1.9-0.3-4.1,0.8-5.1-1.9c1.3-1.6,5.2-2.6,6.6-1.7
	c0.2-0.5,0.3-1.1,0.6-1.6c0.3-0.5,0.8-0.8,1.4-1.3c-0.8-0.1-1.7-0.2-2.5-0.3c0-0.3,0-0.7,0.1-0.7c1.4-0.5,0.7-2,1.3-2.9
	c0.4-0.6,0.8-1.2,1.3-1.9c-0.8-1.3,0.5-2.7,1.9-3.2c-0.2-0.4-0.3-0.7-0.5-1.2c-0.3,0.3-0.7,0.6-0.9,1.1c-0.6,1.8-2.2,2.8-3.3,4.2
	c-0.2,0.3-1,0.2-1.4,0c-0.2-0.1-0.4-0.7-0.4-1c0.1-1.4,0-2.9,1.5-3.8c0-0.1-0.1-0.2-0.1-0.3c-0.3,0.1-0.6,0.3-0.8,0.4
	c-0.1,0.1-0.1,0.3-0.2,0.3c-0.4,0.3-0.8,0.5-1.2,0.8c-0.2-0.4-0.4-0.8-0.6-1.2c-0.1-0.1,0-0.3-0.1-0.5c-0.8,0.2-1.6,0.4-2.4,0.7
	c-0.8,0.3-1.2-0.1-1.3-0.8c0-0.1,0-0.2,0-0.2c-1.6-0.2-1.4-2.1-2.5-2.8c-0.7-0.5-0.5-1.2-0.2-2c0.1-0.4,0.1-0.9,0.1-1.4
	c-0.1,0-0.2,0-0.3-0.1c-0.3,0.6-0.7,1.2-1,1.8c-1.9-0.7-3.6-1.7-4.6-3.6c-0.1-0.3,0.1-0.8,0.2-1.1c0.1-0.3,0.4-0.4,0.4-0.7
	c0.2-1.2,0.7-1.4,1.7-0.9c0.1,0.1,0.3,0.2,0.4,0.3c0.3-0.2,0.6-0.5,0.7-0.5c-0.3-0.8-0.6-1.5-0.7-2.3c0-0.4,0.5-0.8,0.7-1.3
	c0.4,0.3,0.9,0.6,1,1c0.3,1.1,1.2,1.5,2.1,1.9c0.1,0.1,0.6-0.2,0.6-0.2c-0.1-0.8-0.3-1.5-0.3-2.3c0-0.6,0-1.1,0.2-1.7
	c0.1-0.4,0.4-0.8,0.6-1.1c0.6-1.1,1-1.2,2.1-0.5c2.3,1.6,3.6,5,3,7.8c-0.2,0.8-0.9,1.8,0.2,2.6c0.1-1.1,0.1-2.1,1.1-2.8
	c0.3-0.2,0.4-1.2,0.3-1.7c-0.2-1.3,0.4-2.1,1.7-2c0.1,2.8-2,5.3-0.6,8.3c0.3,0.3,0.9,0.7,1.4,1.1c0.1,0.5-1,0.9-0.5,0.9
	c0.4-0.2,0.8-0.5,1.2-0.5c0.3,0,0.6,0.3,1.2,0.6c0.2-0.3,0.4-0.8,0.7-1.3c0.3-0.4,0.6-0.7,0.8-1.3c-0.6,0.3-1.1,0.7-1.8,1
	c-0.2,0.1-0.7,0-0.8-0.1c-0.2-0.3-0.3-0.7-0.3-1.1c0-0.5,0.2-1.1,0.4-1.6c0.3-0.8-0.2-0.9-0.7-1.1c-0.1,0-0.1-0.2-0.1-0.4
	c-0.5-1.5-0.1-2.9,0.5-4.3c0.3-0.6,1-0.6,2-0.3c-0.3-0.3-0.5-0.7-0.8-1c-1.5-1.2-0.7-2.6,0.5-3.4c-2.1-1.4-1.2-3.5-1.5-5.6
	c1.2,0.1,2.2,0.1,3.3,0.2c0,0-0.1-0.2-0.1-0.5c0-0.8,0.4-1.4,1.1-1.5c0.4,0,1,0.4,1.4,0.8c0.3,0.3,0.5,0.9,0.8,1.5
	c0.1-0.7-1-1.8,0.7-1.5c0.2,0,0.6-0.4,0.8-0.7c0.4-0.7,1.2-1,1.8-0.5c0.4,0.3,0.8,0.5,1.3,0.7c0.1-0.1,0.2-0.3,0.3-0.4
	c-0.9-0.8-1.7-1.6-2.5-2.3C62.5,27.3,62.8,29,61.5,28.3L61.5,28.3z M64.4,71.3c-0.1,0-0.1-0.1-0.2-0.1c-1.5,1.6-2.9,3.1-4.4,4.7
	c0.1,0,0.1,0.1,0.2,0.1c0.7-0.4,1.4-0.8,2.1-1.2C62.8,73.7,63.6,72.5,64.4,71.3z M69.9,98.6c0.1,1.1,0.2,2.1,0.3,3
	c0.4-0.7,0.8-1.3,1.1-2c0-0.1,0-0.2,0-0.3c-0.1-0.5-0.2-1.1-0.3-1.5C70.6,98,70.2,98.3,69.9,98.6z M62.1,93.6c0.2,1,0.5,1.9,0.7,2.9
	c0,0,0.1,0,0.1,0c0.1-1,0.1-2,0.2-3C62.9,93.5,62.6,93.5,62.1,93.6z M86.4,41.6c-1.4,0.5-1.7,0.9-1.7,1.7
	C85.3,42.7,85.9,42.1,86.4,41.6z M87.1,36.5c-0.7,0.6-1.1,0.9-1.5,1.3c0.6,0,1.2-0.2,1.7-0.4C87.3,37.4,87.2,36.9,87.1,36.5z"/>
<path class="st0" d="M20,137.5c-1.5-0.3-2.9-0.5-3.6-2c0.2-0.5,0.5-1.1,0.8-1.7c0.3-0.8,1.1-1,1.6-0.4c0.9,1,1.5,0.5,2.3,0
	c0.6-0.4,1.4-0.3,2.2-0.5c0.1-0.3,0.1-0.7,0.3-1.2c0.2-0.4,0.5-0.7,0.7-1.2c0.3-0.7,0.6-1.3,0.7-2c0.3-1.1,0.4-2.3,0.8-3.4
	c0.7-1.9,2.4-2.1,4.5-1.8c1.4,0.2,2.3,0.1,2.6-0.7c0.2-0.6,0.3-1.2,0.6-1.8c0.3-0.6,0.7-1.2,1-1.8c0.1-0.1,0.3-0.2,0.4-0.1
	c1.7,1.4,3.3,0.3,4.9-0.4c0.6-0.3,1.2-0.5,1.8-0.8c1.8-0.8,3.5-0.3,5.3,0.2c0.4,0.1,0.9,0.2,1.3,0.1c1.4-0.3,2.5,0.2,2.9,1.6
	c0.3,1,0.4,2.1,0.6,3.3c0.8,0.1,1,0.7,0.9,1.5c-0.1,0.7,0.1,1.1,0.6,1.6c0.8,0.8,1.4,1.8,2,2.8c0.2,0.3,0.3,0.6,0.8,0.5
	c0.8,0,1.9,1.4,2.1,2.4c0.1,0.9-0.2,1.6-1,2c-0.9,0.6-1.8,1.1-2.7,1.7c-0.2,0.1-0.3,0.3-0.6,0.6c1.1-0.5,2-0.9,2.9-1.1
	c0.9-0.2,1.8-0.3,2.6,0c0.6,0.2,1.1,0.9,1.4,1.5c0.6,1.6,1.1,3.3,1.5,5c0.4,1.6-0.4,3.1-0.9,4.5c-0.4,1-1.2,1.7-1.8,2.6
	c-0.6,0.8-1.7,1.2-2.6,0.9c-1.7-0.5-2.5,0-2.6,1.8c0,2.1-1.3,3.8-3.3,4.3c-0.7,0.2-1.7,0.7-1.9-0.8c0-0.2-0.6-0.4-0.9-0.5
	c-0.5-0.2-1.1-0.3-1.6-0.4c-0.1,0-0.4-0.1-0.4,0c-1,0.9-2.1,1.1-3.4,1.1c-0.7,0-1.3,0.5-2,0.5c-0.7,0.1-1.6-1.6-1.4-2.4
	c0.1-0.3,0.3-0.6,0.3-0.8c0-0.4-0.2-0.9-0.4-1.2c-0.1-0.2-0.7,0-1.2,0c-1.5-0.7-1.8-2.3-2.4-3.9c-0.3-0.9-1.1-1.7-1.7-2.5
	c-0.2-0.3-0.6-0.4-0.5-0.2c-0.9,0.7-1.8,1.4-2.7,2.1c-0.3,0.3-0.4,0.6-0.1,1c0.3,0.5,0.4,1.1,0.5,1.7c0,0.3-0.4,0.8-0.7,0.8
	c-0.8,0.2-1,0.6-1,1.3c-0.1,1.5-1.1,2.1-2.5,1.4c-0.4-0.2-0.9-0.3-1.4-0.5c-0.6,0.8-1.5,0.9-2.6,0.3c-0.5-0.3-0.9-0.7-1.2-1.2
	c-0.8-0.9-1.9-1-3-1.1c-0.9-0.1-1.3-0.4-1.3-1.3c0-0.7-0.2-1.2-0.9-1.4c-0.2-0.1-0.4-0.3-0.5-0.5c-0.7-1.6-2.4-2.4-3.4-3.8
	c-0.6-0.9-0.6-1.2,0.3-1.8c0.5-0.3,0.9-0.8,1.4-1.3c0.5-0.5,0.9-1.3,1.9-1c0.8,0.2,1.8,0.3,2.4-0.8C18.8,138.2,19.4,138,20,137.5z
	 M44.7,140.5c0.2-0.4,0.4-1,0.7-1.6c0.1-0.3,0.5-0.7,0.4-0.9c-0.5-1.1,0.2-1.9,0.6-2.7c0.1-0.2,0.2-0.5,0.4-0.8
	c-1.6,0.4-2.9,1.4-4.3-0.1c0.2,1,0.6,2,0.4,2.8c-0.2,0.9-1,1.6-1.5,2.4c-0.1,0.1-0.1,0.2-0.1,0.3c0.1,0.2,0.3,0.5,0.4,0.5
	C42.7,140.3,43.6,140.4,44.7,140.5z M58.6,144.3c1.2-1.5,1.4-4.2-1-5C58.3,141,59.6,142.4,58.6,144.3z M17.1,141.2
	c0.9,0.4,1.8,0.8,3,1.3c-0.4-0.8-0.5-1.7-0.9-1.9C18.5,140.3,17.6,140.4,17.1,141.2z"/>
<path class="st0" d="M32.2,25.9c-0.2-0.4-0.6-0.7-0.7-1.2c-0.2-0.9-0.6-1.9-0.4-2.7c0.2-1,0.7-1.9,1.3-2.8c0.2-0.3,0.8-0.5,1.1-0.4
	c0.7,0.1,1.4,0.4,2,0.6c0-0.2-0.3-0.7-0.1-0.9c0.2-0.2,0.7-0.2,1.2-0.3c-0.3-1.5,1-2,2-2.7c0.5-0.3,1.2-0.4,1.8-0.7
	c0.4-0.2,0.9-0.3,1.3-0.6c1.1-1,2.2-2.1,3.3-3.1c0.7-0.6,1.3-1.2,2.1-1.9c1.2,0.4,1.7,1.5,2,2.7c0.1,0.7,0.6,1.4-0.3,2
	c-0.2,0.1,0,0.8,0.1,1.1c0.3,0.6,0.1,1-0.4,1.5c-0.9,0.9-1.7,1.8-2.5,2.7c0.1,0.1,0.2,0.3,0.3,0.4c0.9-0.6,1.8-1.2,2.7-1.7
	c1,0.5,0.9,1.5,0.5,2.1c-0.9,1.7-2.6,1.2-4.2,0.9c0.6,1,0.4,1.7-0.4,2.3c1.3,2.1,0.7,3.7-1.4,3.9c0.4,2.1-1.4,3.4-3.9,2.9
	c0.1,1.1-0.1,1.2-1.9,1.4c0.6,1.2,0.3,1.8-0.9,2.3c-0.6,0.3-1.1,1-1.6,1.5c-0.4,0.4-0.7,0.9-1.1,1.5c-1.9-1.2-3.5-2.6-4.2-5
	c0.7,0.2,1.3,0.4,2,0.6c0.2-0.2,0.5-0.6,0.8-0.8c-0.4-0.2-0.8-0.4-1.2-0.6c0.3-0.4,0.6-0.9,1-1.2c0.3-0.2,0.8-0.2,1.2-0.2
	c0.3,0,0.7,0.3,1,0.4c0-0.1,0.1-0.3,0.1-0.4c-0.7-0.2-1.5-0.4-2.2-0.6c-0.4-0.1-0.9-0.3-1.2-0.6C31.1,28.1,31,27,30,27.1
	c0-0.5-0.2-1.2,0-1.3c0.4-0.3,1-0.2,1.5-0.2c0.1,0,0.3,0.3,0.4,0.4C32,26,32.1,25.9,32.2,25.9z"/>
<path class="st0" d="M27,57.7c-1.9-0.4-1.9-2.1-2-3.5c-0.1-1.3,0.2-2.7,0.4-4c0-0.4,0.1-0.8,0-1.1c-0.4-1,0.2-1.6,0.9-2.1
	c-1.2-1.6-1.3-1.9-0.4-2.9c-0.2-1.1-0.7-1.8-1.8-2.2c-0.9-0.3-1.1-1.1-0.8-1.9c0.5-1.4,0.9-1.7,2.3-1.7c0.9,0,1.8-0.8,1.9-1.7
	c1.2-0.2,1.4,0,1.3,1.2c0-0.3,0.1-0.5,0.1-0.8c0-0.3,0.1-0.7,0-0.9c-0.3-0.5-0.5-1-0.8-1.5c0.6-0.2,1.1-0.4,1.8-0.6
	c0,0.7,0,1.1,0,1.5c0.4,0.2,0.8,0.3,1.4,0.6c-0.4,0.6-0.7,1.1-1.1,1.5c0.2,0.3,0.4,0.6,0.6,1c0.6-0.2,1.3-0.2,1.7,0.6
	c0.3,0.7,0,1.3-0.6,1.4c-0.2,0.8-0.3,1.5-0.5,2.2c-0.2,0.7-0.4,1.5-0.6,2.2c-0.1,0.2-0.2,0.4-0.4,0.4c-0.8,0.3-0.7,0.8-0.3,1.4
	c0.3,0.5,0.6,1.1-0.2,1.4c-0.3,0.1-0.8-0.1-1.2-0.1c0.3,0.6,0.8,1.4,1.2,2.2c0.1,0.3,0.2,0.8,0.1,1.1c-0.4,0.7-0.9,1.4-1.5,2.2
	c0.5,0.6,1,1.3,0.6,2.2c0,0.1,0.2,0.3,0.3,0.5c0.4,0.5,0.5,1-0.1,1.5c-0.2,0.1-0.2,0.5-0.4,0.7c-0.3,0.3-0.6,0.6-1,0.9
	c-0.2-0.4-0.5-0.7-0.7-1.1C27,58.1,27,57.9,27,57.7z"/>
<path class="st0" d="M66.5,112c-1.8,0-2.9-0.9-3.4-2.8c-0.3-1.1-0.6-2.2-0.8-3.3c-0.4-1.5,1.2-3.8,2.8-3.9c1-0.1,1.8,0.4,2.2,1.4
	c0.5,1.3,0.9,2.7,1.4,4.1c0.1,0.2,0.3,0.4,0.4,0.6c0.3,0.5,1,1.1,0,1.6c0,0,0,0.1,0,0.2C68.9,111.5,68.2,112,66.5,112z"/>
<path class="st0" d="M38.3,75.1c0.4-0.6,0.6-1.2,1-1.6c0.9-0.9,1.9-1.8,3-2.6c0.3-0.2,0.9-0.1,1.3-0.1c0,0.4,0.1,0.8,0,1.1
	c-0.5,1.9-1.9,2.7-3.6,3.3c-0.4,0.1-0.8,0.2-1.3,0.3c0.5,0.8,0,1.1-0.6,1.5c-0.5,0.3-0.9,0.7-1.3,1c-0.3,0.2-0.8,0.3-1.1,0.6
	c-0.5,0.3-0.8,0.8-1.3,0.9c-0.3,0.1-1-0.4-1.1-0.7c-0.1-0.6-0.1-1.5,0.3-1.9c0.5-0.5,1.3-0.8,2.1-1C36.6,75.5,37.5,75.3,38.3,75.1z"
	/>
<path class="st0" d="M43.1,59.8c-0.9-0.1-1.7-0.2-2.9-0.3c0.3-0.5,0.5-1,0.9-1.2c1.2-0.6,1.5-0.5,2.6,0.9c0.2-0.1,0.5-0.4,0.8-0.4
	c0.7-0.1,1.4-0.4,2-0.2c0.7,0.3,1.5,0.8,1.2,1.9c-0.1,0.3,0,0.5,0,0.8c0,1.1-1.2,2.1-2.3,1.6C44.1,62.3,43.1,61.2,43.1,59.8z"/>
<path class="st0" d="M26.5,59.7c-0.1,0.2-0.4,0.4-0.3,0.6c0.4,1.7,0.4,1.6-1.1,2.6c-0.3,0.2-0.3,0.7-0.4,1.1c0,0.2,0.1,0.4,0.2,0.8
	c-0.6,0.1-1.1,0.1-1.6,0.2c0,0,0,0,0,0c-0.2-0.6-0.3-1.2-0.6-1.8c-0.2-0.5,0-1.4,0.3-2c0.6-1.1,1.1-2.4,2.6-2.7
	c0.3-0.1,0.7,0.1,1,0.1C26.6,59,26.5,59.4,26.5,59.7L26.5,59.7z"/>
<path class="st0" d="M49.8,89.3c-0.5,1.1-1,2-1.5,3c-0.2,0.4-0.5,0.9-0.8,1.2c-0.5,0.6-0.9,0.1-1.1-0.3C45.7,91.1,47.4,89,49.8,89.3
	z"/>
<path class="st0" d="M48.8,65.4c-0.6-0.4-1.2-0.6-1.3-1C47.5,64,47.8,63.4,48,63c0-0.1,0.2-0.1,0.2-0.2c0.3-0.6,0.6-1.1,1.3-0.8
	c0.5,0.2,1,1.7,0.7,2.2C50,64.7,49.4,65,48.8,65.4z"/>
<path class="st0" d="M23.3,65c0.1,0.4,0.2,0.7,0.4,1.1c-0.1,0-0.2-0.1-0.3-0.1c-0.3,0.4-0.7,0.8-1,1.2c-0.3,0.3-0.6,0.7-0.8,1
	c-0.3-0.2-0.7-0.5-0.7-0.7c0-0.4,0.3-0.8,0.5-1.2c0.2-0.3,0.4-0.6,0.7-0.8C22.4,65.3,22.9,65.2,23.3,65C23.3,65.1,23.3,65,23.3,65z"
	/>
<path class="st0" d="M47.5,274.5c-0.2,0.7-0.3,1.2-0.5,1.7c-0.1,0.2-0.3,0.5-0.5,0.5c-0.3,0-0.7-0.1-0.9-0.3
	c-0.3-0.3-0.4-0.8-0.5-1.2c-0.2-0.7,1-1.4,1.8-1.1C47.2,274.3,47.4,274.5,47.5,274.5z"/>
<path class="st0" d="M55.4,104c0.2-0.7,0.3-1.3,0.5-1.8c0.1-0.2,0.5-0.4,0.7-0.4c0.2,0,0.6,0.4,0.6,0.5c-0.2,0.8-0.4,1.6-0.7,2.3
	c-0.1,0.1-0.6,0.3-0.8,0.2C55.6,104.6,55.5,104.2,55.4,104z"/>
<path class="st0" d="M45.8,116.4c0.7-1,1.2-1.4,2.4-1c0.3,0.1,0.7,0.5,0.8,0.8c0,0.4-0.2,0.9-0.5,1.1c-0.2,0.1-0.7-0.3-1.1-0.4
	C46.9,116.7,46.3,116.5,45.8,116.4z"/>
<path class="st0" d="M42.7,79.5c-0.2-0.1-0.6-0.3-0.5-0.4c0.1-0.3,0.2-0.7,0.4-1c0.2-0.3,0.4-0.5,0.7-0.7c0.2-0.2,0.4-0.4,0.6-0.4
	c0.2,0,0.5,0.2,0.5,0.4c0.1,0.3,0,0.8-0.1,0.8c-0.7,0.1-0.9,0.7-1.3,1.1C42.9,79.4,42.8,79.4,42.7,79.5z"/>
<path class="st0" d="M23.1,42.6c-0.3,1.4-1.1,1.8-2.1,1.2c-0.1-0.1-0.2-0.3-0.3-0.5c0-0.1,0.1-0.4,0.3-0.4
	C21.6,42.8,22.3,42.7,23.1,42.6z"/>
<path class="st0" d="M47.2,65.1c0.5,0.5,0.8,0.8,1.1,1.1c-0.4,0.2-0.7,0.6-1.1,0.7c-0.2,0-0.7-0.4-0.7-0.6
	C46.4,66,46.8,65.7,47.2,65.1z"/>
<path class="st0" d="M76.4,238.9c0.1,0.5,0.2,1.1,0.2,1.6c0,0.3-0.3,0.5-0.5,0.8c-0.2-0.3-0.7-0.5-0.6-0.7c0.1-0.6,0.4-1.1,0.6-1.7
	C76.2,238.9,76.3,238.9,76.4,238.9z"/>
<path class="st0" d="M46.1,31c-0.4,0.3-0.7,0.7-0.8,0.6c-0.4-0.3-0.8-0.7-1.1-1.1c0-0.1,0.4-0.5,0.6-0.7
	C45.2,30.2,45.6,30.6,46.1,31z"/>
<path class="st0" d="M43.2,35.5c0.7-0.1,1.3-0.2,1.4,0.6c0,0.2-0.4,0.5-0.5,0.5C43.3,36.6,43,36.2,43.2,35.5z"/>
<path class="st0" d="M61.5,28.3c-0.1,0.2-0.3,0.6-0.5,0.7c-0.3,0.1-0.7,0-0.9-0.2c-0.1-0.1,0-0.8,0-0.8c0.3-0.1,0.7,0,1.1,0
	C61.3,28,61.4,28.2,61.5,28.3C61.5,28.3,61.5,28.3,61.5,28.3z"/>
<path class="st0" d="M26.4,59.7c0.2,0,0.5-0.1,0.6,0c0.3,0.2,0.6,0.5,0.8,0.8c-0.2,0.1-0.5,0.4-0.6,0.4c-0.3-0.2-0.6-0.4-0.8-0.7
	C26.4,60.1,26.4,59.9,26.4,59.7C26.5,59.7,26.4,59.7,26.4,59.7z"/>
<path class="st0" d="M57,85.7c-0.6,0.2-1.1,0.3-1.5,0.5c0-0.3-0.1-0.7,0-0.9C55.9,84.8,56.3,85,57,85.7z"/>
<path class="st0" d="M21.8,37.1c-0.3,0.5-0.4,0.7-0.6,1.1c-0.3-0.2-0.6-0.3-0.7-0.6c-0.1-0.1,0.1-0.6,0.2-0.6
	C21,37,21.3,37,21.8,37.1z"/>
<path class="st0" d="M64.4,71.3c-0.8,1.2-1.6,2.4-2.3,3.5c-0.7,0.4-1.4,0.8-2.1,1.2c-0.1,0-0.1-0.1-0.2-0.1c1.5-1.6,2.9-3.1,4.4-4.7
	C64.3,71.2,64.3,71.3,64.4,71.3z"/>
<path class="st0" d="M69.9,98.6c0.4-0.3,0.8-0.6,1.2-0.9c0.1,0.5,0.2,1,0.3,1.5c0,0.1,0,0.2,0,0.3c-0.4,0.7-0.8,1.4-1.1,2
	C70.1,100.6,70,99.6,69.9,98.6z"/>
<path class="st0" d="M62.1,93.6c0.5-0.1,0.8-0.1,1-0.2c-0.1,1-0.1,2-0.2,3c0,0-0.1,0-0.1,0C62.6,95.5,62.4,94.6,62.1,93.6z"/>
<path class="st0" d="M86.4,41.6c-0.5,0.5-1.1,1.2-1.7,1.7C84.7,42.5,85.1,42.1,86.4,41.6z"/>
<path class="st0" d="M58.6,78.7c-0.4-0.3-0.9-0.6-1.4-0.9c0.7-0.3,1.2-0.5,1.8-0.8C58.9,77.6,58.7,78.2,58.6,78.7
	C58.5,78.7,58.6,78.7,58.6,78.7z"/>
<path class="st0" d="M87.1,36.5c0.1,0.4,0.2,0.9,0.2,0.9c-0.5,0.3-1.1,0.4-1.7,0.4C86,37.4,86.5,37,87.1,36.5z"/>
<path class="st0" d="M44.7,140.5c-1.1-0.1-2-0.1-3-0.3c-0.2,0-0.3-0.3-0.4-0.5c0-0.1,0-0.2,0.1-0.3c0.5-0.8,1.3-1.5,1.5-2.4
	c0.2-0.8-0.2-1.7-0.4-2.8c1.4,1.5,2.8,0.5,4.3,0.1c-0.2,0.4-0.3,0.6-0.4,0.8c-0.4,0.9-1.1,1.6-0.6,2.7c0.1,0.2-0.2,0.6-0.4,0.9
	C45.1,139.4,44.9,140,44.7,140.5z"/>
<path class="st0" d="M58.6,144.3c1-1.9-0.3-3.4-1-5C60,140.1,59.8,142.8,58.6,144.3z"/>
<path class="st0" d="M17.1,141.2c0.5-0.8,1.4-0.9,2.1-0.6c0.4,0.2,0.5,1,0.9,1.9C18.9,141.9,18,141.6,17.1,141.2z"/>
</svg>
