<?xml version="1.0" encoding="utf-8"?>
<!-- Generator: Adobe Illustrator 27.9.1, SVG Export Plug-In . SVG Version: 6.00 Build 0)  -->
<svg version="1.1" xmlns="http://www.w3.org/2000/svg" xmlns:xlink="http://www.w3.org/1999/xlink" x="0px" y="0px"
	 viewBox="0 0 206 280" style="enable-background:new 0 0 206 280;" xml:space="preserve">
<style type="text/css">
	.st0{display:none;}
	.st1{fill:#FFFFFF;}
	.st2{fill:none;stroke:#000000;stroke-width:2;stroke-linecap:round;stroke-linejoin:round;stroke-miterlimit:10;}
</style>
<g id="Layer_1" class="st0">
</g>
<g id="Layer_2">
	<g>
		<path class="st1" d="M61.2,28.4c0.1-0.4,0.3-0.9,0.2-1.3c-0.2-0.7,0.4-1.4-0.4-2.1c-0.2-0.1,0-1.2,0.3-1.4c0.3-0.2,1-0.1,1.5,0
			c0.6,0.2,1.1,0.5,1.5,0.6c0-0.8,0.1-1.3,0.1-1.9c-0.8-1.1-1.6-2.1-2.3-3.3c-0.1-0.1,0.2-0.7,0.5-0.9c0.2-0.2,0.7-0.2,0.9,0
			c1.4,0.9,2.5-0.2,3.8-0.3c-0.5-1.2-0.9-2.3-1.3-3.5c-0.1-0.2,0-0.5,0.1-0.6c0.8-0.8,1.5-1.6,2.3-2.4c-1.1-0.5-1.2-2.1-0.5-2.8
			c0.9-0.9,1.3-1.9,1.3-3.1c0-0.2,0.1-0.4,0.3-0.8c1.3,0.5,2.6,1,3.9,1.6c0,0,0.4-0.3,0.5-0.3c0.9,0.7,1.7,1.4,2.5,2.1
			c0.2-0.7,0.5-1.9,1.9-1.4C79,7.1,79.8,7.7,81,8.4c1.2-0.1,3,0.1,4.3-1.5c0.2,0.1,0.5,0.3,0.8,0.4c0.2-0.2,0.4-0.3,0.5-0.6
			c0.4-0.7,1-0.7,1.3-0.1c0.4,0.8,1.1,0.7,1.7,0.7c1.4-0.1,2.7-0.6,3.7-1.6c0.8-0.7,1.6-0.4,2.5-0.2c0.9,0.2,1.9,0.4,2.7,0.6
			c-0.1-0.7-0.3-1.2-0.2-1.7c0.1-0.5,0.6-1,1.2-0.5c1.1,0.9,2.4,0.2,3.2,0.6c0.5-0.6,0.9-1.5,1.2-1.5c0.8,0,0.8,0.8,0.5,1.4
			c0.1,0.1,0.1,0.1,0.2,0.1c1.8,0.1,2.1,0.5,1.3,2.2c-0.4,0.8-1,1.6-1.4,2.4c-0.5,0.9-0.3,1.2,0.7,1.3c0.7,0.1,1.1,0.5,0.8,1.2
			c-0.6,1.3-1.3,2.5-2,3.7c-0.8,1.4-2.2,2-3.6,2.7c-0.5,0.3-1.1,0.6-1.5,1.1c-1.6,2.6-4,4.5-6.4,6.3c-0.4,0.3-0.7,0.6-1.1,0.9
			c-0.8,0.7-1.7,1.3-2.4,2.1c-0.5,0.5-1.1,1.2-0.8,2.1c0.3,0.8-0.4,1.5-1.6,2.1c0.4,0,0.7,0,1.1-0.1c0.6-0.3,1.2-0.4,1.7,0.2
			c0.1,0.1,0.4,0,0.6-0.1c0.3-0.2,0.5-0.6,0.8-0.8c0.3-0.2,0.8-0.3,1.1-0.4c0,0.4,0.2,0.9,0.1,1.2c-0.7,1.2-1.5,2.4-2.3,3.5
			c-0.5,0.7-1.3,1.2-1.8,1.9c-0.5,0.7-0.7,1.5-1.1,2.4c1.2,0,2.4,0,3.5,0c0.2,0,0.4-0.2,0.6-0.4c1.2-1.3,2.8-1.8,4.5-2.1
			c0.3-0.1,0.7-0.2,0.9-0.4c1.4-1.5,3.1-1.5,5-0.9c1.3,0.4,2.6,0.8,3.9,1.1c0.4,0.1,0.9,0,1.3-0.2c1.3-0.7,2.5-0.6,3.9-0.4
			c2.2,0.4,4.4,0.8,6.6,0.7c1.2,0,2.4-0.3,3.7-0.1c0.2,0,0.5,0,0.8-0.2c1.7-0.8,3.8-0.2,5.1,1.3c0.9,0.9,1.3,2,1.5,3.2
			c0.1,0.8,0.7,1.5,1,2.2c-0.1,0.3-0.1,0.7-0.3,1c-0.5,0.9-0.9,1.8-1.5,2.6c-1.3,1.8-2.9,3.5-3.6,5.7c-0.2,0.7-0.4,1.6-0.2,2.3
			c0.3,1.6-0.4,2.9-1.2,4.2c-0.6,1-0.8,2-1,3.2c-0.2,1.2-0.9,2.4-1.6,3.5c-0.6,0.9-1.6,1.5-2.3,2.3c-0.3,0.3-0.4,0.8-0.5,1.2
			c-0.1,0.3-0.1,0.7-0.3,1.1c-0.4,1-1,1.8-1.1,3c-0.1,0.7-1.1,1.3-1.7,1.9c-0.7,0.7-1.5,1.5-2.3,2.1c-0.5,0.3-1.2,0.3-1.8,0.5
			c0,0.9,0,1.9,0,3c0.8,0.3,1.7,0.6,2.4,1c0.6,0.3,1.3,0.8,1.6,1.4c0.3,0.8-0.2,1.5-1,2.1c-1.6,1.2-3.3,1.7-5.3,1.3
			c-0.4-0.1-1,0.4-1.5,0.8c-1.3,1-2.4,2.1-2.7,3.6c-1.5,0.4-2.8,0.8-4.2,1.2c2.1,0.5,4,1,6,1.5c0.8,0.2,2.8-0.8,3-1.8
			c0.3-1.2,1-1.6,2-1.8c1.3-0.3,3.6,0.1,4,1.6c1.2,0.6,2.3,1,3.2,1.6c1.1,0.7,2.1,1.4,3.5,1.5c1.2,0.1,1.9,1.2,2.2,2.3
			c0.6,2.1,2.1,3.5,3.5,5c0.1,0.1,0.5,0.1,0.7,0.1c1,0,1.3,0.3,1.4,1.4c0,0.5,0.1,1,0.9,1.1c1.4,0.3,1.8,1.6,2.1,2.8
			c0.3,1.3,0.7,2.5,0.5,3.9c-0.1,0.9,0.5,1.9,0.5,2.8c0,1.5,0.7,2.9,0.8,4.3c0.1,1.5,0.5,2.8,1.2,4c1.2,2.2,1.8,4.6,2.2,7.1
			c0.3,1.8,1.1,3.4,2.9,4c-0.1,0.7-0.3,1.4-0.3,1.8c0.6,0.1,1.1,0,1.6,0.2c1.7,0.7,3.4,1.5,5.2,2.2c3.6,1.4,6,3.8,7.1,7.6
			c0.5,1.9,1,2.3,2.8,3.2c-0.2,1.1,0.5,1.5,1.4,1.8c0.6,0.2,1.2,0.6,1.8,1c0.5,0.4,0.4,0.7-0.2,1c-1.9,0.9-2.2,1.6-1.8,3.6
			c0.6,2.7,2.4,4.8,3.8,7c0.8,1.3,1.5,2.7,2.3,4.1c0.2,0.3,0.2,0.8,0.1,1.1c-0.1,0.3-0.5,0.5-0.7,0.8c-0.2-0.2-0.4-0.5-0.5-0.7
			c-0.2-0.4-0.2-0.9-0.4-1.4c-1.6,0.9-3.1,0.5-4.4-0.3c0,0.1-0.1,0.2-0.1,0.2c0.9,0.6,1.9,1.1,2.6,1.9c1.8,1.8,4.3,2.8,5.3,5.4
			c0.8,2,1.6,3.9,2.1,6c0.4,1.8-0.4,3.4-1.8,4.6c-1.3,1.2-2.6,2.5-4.1,3.9c1.7,0.3,2.3,1.7,3.3,2.5c0.3,0.2,0.6,0.4,1,0.4
			c0.4,0.1,0.9,0.1,1.5,0.1c0.4-0.9,0.8-2.2,1.3-3.4c0.7-1.5,1.5-1.9,3.1-1.7c0.2,0,0.4-0.1,0.7-0.2c0.4-0.1,0.8-0.2,1.3-0.2
			c1.3,0.1,2.7,0.8,3.7,0.4c1.5-0.6,2.7,0.1,3.9,0.4c1.4,0.3,2.8,0.6,4,1.2c1,0.5,1.8,1.5,2.9,2.1c2.5,1.4,3.7,3.6,4.2,6.3
			c0.5,2.5,0.9,5-0.1,7.5c-0.6,1.5-1.2,2.9-1.7,4.4c-0.3,0.9-0.2,1.8-0.4,2.7c-0.3,1.6-1,2.8-2.6,3.4c-0.3,0.1-0.5,0.4-0.7,0.7
			c-0.5,0.6-0.9,1.3-1.4,2c-0.1,0.2-0.4,0.3-0.6,0.4c-0.5,0.2-1.1,0.5-1.6,0.8c1,0.4,1,1,0.6,1.8c-0.8,1.6-2.8,2.6-4.6,2.4
			c-0.5-0.1-1.1,0-1.9,0c0.9,1.3,1,2.3,0.5,3.3c-0.1,0.2,0,0.5,0,0.7c0,0.3,0,0.6-0.2,0.8c-1.2,1.6-2.7,2.6-4.8,2.4
			c-0.4,0-0.9,0.1-1.4,0.2c0.8,0.5,2,0.2,2.2,1.5c2.3-0.3,3.9,0.6,4.1,2.5c0.9-0.2,1.7-0.3,2.5-0.5c1.8-0.3,3.6-0.6,5.4-0.8
			c0.4,0,1.3,0.2,1.3,0.4c0.1,0.5-0.1,1.1-0.3,1.7c-0.1,0.3-0.5,0.4-0.6,0.7c-0.1,0.3-0.3,0.8-0.2,1.1c1.2,2.6-0.2,4.4-2.3,5.3
			c-0.7,0.3-1.5,0.5-2.3,0.6c-2.3,0.6-3.4,2.4-2.9,5c-1.1-0.1-2.3-0.3-3.4-0.4c-0.9-0.1-1.6,0.3-2.1,1.1c-0.2,0.3-0.5,0.4-0.8,0.6
			c-1.6,0.6-3.3,1-4.9,1.7c-0.6,0.2-1.2,0.8-1.6,1.4c-0.4,0.6-0.8,0.8-1.5,0.6c-2.1-0.7-4.2-1.4-6.3-2c-1.3-0.4-2.5-0.3-3.9,0
			c-2,0.5-4.1,0.8-6.2,1.3c-0.2,0-0.5,0.1-0.6,0.3c-0.9,1.1-1.4,1.2-2.6,0.4c-0.5-0.3-0.9-0.7-1.3-1c-2.2-0.3-4.7,0.6-6.6-1.9
			c0,0.6,0,0.9,0,1.3c1.3,0.4,2.6,0.9,4,1.4c0.1,0.1,0.4,0.4,0.5,0.7c0.1,0.4,0,1-0.2,1.3c-0.5,0.7-1.3,1.2-1.8,1.9
			c-0.9,1.2-2.3,1.4-3.4,0.4c-1.2-1.2-2.7-1.8-4.4-2c0.2-0.4,0.3-0.8,0.5-1.2c-0.6-0.3-1.3-0.7-1.9-0.7c-0.5,0-1.1,0.5-1.7,0.8
			c-1.3-0.7-2.5,0-2.6,1.7c0,1.2-0.6,1.8-1.8,1.7c-1.5-0.2-3-0.5-4.4-0.8c-0.8-0.1-1.6-0.3-2.4-0.4c-0.6,0-1,0.4-0.8,1
			c0.1,0.4,0.4,0.8,0.6,1.4c-0.5,0.6-1,1.2-1.6,1.8c-0.1-0.2-0.2-0.3-0.2-0.3c0.6-1.8-0.4-2.8-1.6-3.7c-1.1-0.7-2.2-1.4-3.3-2.1
			c-1.1-0.7-2.3-0.7-3.6-0.4c-1.3,0.3-2.6,0.5-3.9,0.8c-0.8,0.2-1.5,0.8-2.1,1.3c-0.7,0.5-1.3,1-2.2,0.8c-0.1,0.3-0.1,0.8-0.3,1
			c-0.9,0.7-0.8,1.6-0.8,2.6c0,0.2-0.1,0.5-0.2,0.7c-0.5,0.4-0.3,0.7,0,1.1c0.6,1,0.1,1.9-1,2.2c-0.5,0.2-1.1,0.9-1.2,1.5
			c-0.3,1.1-0.6,2-1.8,2.1c-1.3,0.1-2.6-0.3-3.3-1.5c-0.5-0.8-0.9-1.3-2-1c-1.3,0.4-1.9-0.7-2.7-1.4c-1.1,1.1-1.1,1-2.5,0.1
			c-0.4-0.3-1.2-0.2-1.7-0.1c-1,0.2-1.9,0.7-2.9,0.8c-1.1,0.1-2.2,0-3.4-0.1c0,0.2-0.1,0.6-0.3,1c-0.3,0.9-0.6,1.8-1.9,1.9
			c-0.7,0.1-1.3,1-2,1.4c-0.4,0.3-0.8,0.4-1.3,0.4c-0.2,0.3-0.4,0.5-0.5,0.8c-0.1,0.3-0.1,0.6,0.1,0.8c0.6,0.9,0.4,1.7-0.5,2.2
			c-0.8,0.5-1.6,1.2-2.4,1.8c-0.6-1-1.3-2-1.9-3.1c-0.7-1.3-1.9-1.3-3.1-1.6c-0.2,0-0.5,0.5-0.7,0.8c-0.5,0.7-0.9,1.6-2,1.6
			c-1.3,0.1-1.9-0.8-1.9-2.2c0-1.1,0.3-2.2,1.7-2.6c0.8-0.2,1.5-0.7,2.3-1c0.3-0.1,0.7,0,1,0c0.2,0,0.5,0,0.7-0.1
			c1.4-1.2,3.2-1.9,4.2-3.6c0.2-0.4,0.3-0.8,0.5-1.2c0.2-0.4,0.5-0.8,0.8-0.9c0.8-0.2,0.9-0.8,1-1.4c0.2-0.7,0.2-1.8,0.7-2.1
			c0.8-0.6,1.6-1.4,2.7-1.4c0.7,0,1.4-0.1,1.5-0.9c0.2-1.4,1.5-2,2.2-2.9c0.8-1,1.3-2.2,1.9-3.4c0.2-0.4-0.1-1-0.2-1.4
			c-0.2-0.8-0.9-1.5,0.3-2.2c0.2-0.1,0.2-0.8,0.3-1.5c1,0.2,2.1,0.4,3.2,0.7c0.7,0.2,1.1,0,1.5-0.5c0.7-0.8,1.1-1.5,0.6-2.6
			c-0.5-1.2,1-2.8,2.4-3c1.4-0.2,2.8-0.3,4.1-0.4c2-0.2,4,0,6,0.1c1.3,0,2.2,0.8,3.4,1c1.2,0.2,2.3,0.1,3.5-0.3
			c0.4-0.2,1-0.2,1.4-0.2c1.2,0,1.5-0.5,1.4-1.7c-0.1-0.7,0.2-1.5,0.4-2.2c0.6-1.8,2.3-2.7,3.5-4.1c0.1-0.1,0.3-0.2,0.5-0.3
			c1.6-0.9,1.8-1.2,2.9-3.4c-0.6,0.5-1.2,0.8-1.6,1.2c-0.9,1-2.1,1.4-3.3,1.4c-1,0-2,0.1-2.7,0.9c-0.7,0.8-1.9,1.3-1.8,2.7
			c0,0.2-0.4,0.5-0.7,0.6c-3.3,1.1-6.3,0.8-8.8-2c-0.3-0.3-0.9-0.3-1.1-0.6c-0.5-0.7-0.8-1.6-1.3-2.4c-0.2-0.4-0.5-0.8-0.9-1.2
			c-0.6-0.6-1.3-0.2-1.8,0.1c-0.1,0.1,0.1,0.8,0.2,1.2c-0.5,0-1.2-0.1-1.9,0c-0.6,0.1-1.3,0.3-1.9,0.5c-0.8,0.3-1.6,0.5-2.3-0.2
			c-0.6-0.6-1-1.4-0.6-2.3c0.4-1,1.3-0.9,2.2-1.1c-0.2,0-0.5-0.1-0.7-0.1c-1.5,0.3-2.8-0.6-2.9-2c-1.1,0.1-2.2,0.2-3.3,0.3
			c-1.2,0.1-1.6,0.5-1.8,1.6c-0.2,1-1.1,1-1.8,1c-0.9,0.1-1.6,0.2-2.3,0.9c-0.4,0.5-2.1,0.3-2.6-0.3c-0.6-0.7-1.2-1.4-1.8-2.2
			c-1.2,0.6-1.2-0.9-2.1-1.1c-0.2,0.1-0.5,0.3-0.8,0.2c-0.2-0.1-0.5-0.5-0.5-0.7c0.1-0.3,0.7-0.6,0.7-0.6c1,0.9,1.5-0.3,2.2-0.6
			c0.5-0.2,0.9-0.7,0.6-1.5c-0.3-0.7-0.8-0.7-1.4-0.7c-0.7,0-1.3,0.1-2,0.2c-0.2,0-0.5-0.1-0.6-0.3c-0.1-0.2-0.1-0.6,0-0.8
			c0.8-1.1,1.9-1.8,3.2-2.3c0.7-0.2,1.3-0.7,1.4-1.6c0-0.3,0.8-0.7,1.2-0.8c1,0,2.1,0.2,3.3,0.3c-0.1-0.4-0.1-0.6-0.1-0.6
			c1-0.8,1.9-1.7,2.9-2.4c0.5-0.4,1.3-0.6,1.9-0.7c1-0.1,1.8,0,2.6-0.9c0.7-0.8,1.8-1.3,2.8-1.9c2.2-1.2,3.1-3.2,3.5-5.5
			c0.2-1,0.4-1.9,0.7-3c-1.5-1.1-1.9-2.6-0.1-5.2c-0.8-1.2-2-2.1-1.4-3.8c0.4-1.1-0.1-1.7-1.3-1.5c-1.1,0.1-2.2,0.4-3.2,0.8
			c-0.5,0.3-1,1-1.2,1.7c-0.3,1-0.7,1.4-1.4,0.8c-1-0.9-1.9-0.2-2.8,0c-0.5,0.1-1.1,0.1-1.7,0.1c0.5-2,1.6-3.3,2.9-4.4
			c1.2-0.9,2.5-1.8,3.6-2.7c0.4-0.3,0.7-0.9,1-1.4c0.6-1.2,0.4-1.2-0.6-1.9c-1.1-0.8-1.9-2-2.8-3.1c-0.4,0-1,0.2-1.1-0.7
			c0-0.3-0.7-0.4-1-0.7c-0.4-0.3-1.1-0.5-0.6-1.2c0.4-0.6,0.7-1.2,1.6-0.7c0.1,0.1,0.3,0.1,0.4,0.1c0.1-0.6,0.2-1.3,0.3-1.9
			c0-0.2,0.1-0.5,0.2-0.5c1.2-0.4,2.4-0.8,3.7-0.9c1-0.1,1.8,0.8,2.3,1.7c0.3,0.5,0.6,1,0.8,1.5c0.2,0.4,0.5,0.5,1.1,0.4
			c1.6-0.5,2.3,0.3,1.8,2.1c1.1-0.5,2-0.9,3-1.3c-0.2-1.5,0.1-1.7,1.4-1.2c0.3,0.1,0.5,0.2,0.7,0.4c1.6,1.4,3.2,0.7,4.8,0
			c1.2-0.5,2.5-1.2,3.8-0.7c0.8,0.2,1.4,0.8,2,1.1c0.1-0.7,0.1-1.6,0.2-2.5c0.2-1.2,1.2-1.2,2.1-1.4c-0.3-0.8-0.5-1.6-0.9-2.3
			c-1-1.6-0.1-2.8,0.9-3.9c0.5-0.6,1.2-1.2,1.9-1.9c-1.2-0.1-2-0.7-2.2-1.7c-0.2-0.9-0.2-1.9-0.3-2.8c0-0.2,0.1-0.3,0.1-0.5
			c0.3-2.1,0.4-2.3,2.6-2.5c0.4-0.1,0.8-0.4,1.3-0.7c-1.5-1.2-1.5-1.9-0.4-3c1.2-1.2,1.3-1.6,0.4-3.1c-0.4,0.4-0.7,0.9-1.2,1
			c-0.5,0.1-1.2-0.1-1.9-0.2c-0.2,0.4-0.6,1.2-1.1,1.9c-0.5,0.6-1.1,1.2-1.6,1.7c-1.8-0.8-2.4-2.6-1.4-4.2c-1.8-0.5-2.9-2-3.1-3.9
			c-0.1-1.4-1.1-2.3-1.8-3.3c-0.7-1-1.4-2.1-2.1-3.2c-0.1-0.3-0.1-0.7,0-1c0.4-1.2,0.8-2.4,1.2-3.5c0-0.1,0-0.3,0.1-0.4
			c1.1-2.1,2.1-4.2,3.1-6.4c0.4-0.9,1.1-1.4,2.2-0.9c-0.2-0.2-0.4-0.4-0.7-0.6c0.3-0.4,0.6-0.8,0.9-1.3c-1.3-0.1-2.5-0.3-3.8-0.4
			c-0.8-0.1-1.2,0.2-1.2,1.1c0.1,1.6-0.4,2-2,2.2c-0.9,0.1-1.8,0.4-2.9,0.7c0,1.5-1.5,1.9-2.5,2.6c-0.3,0.2-0.9,0.3-1,0.1
			c-0.9-0.9-2.2,0.4-3-0.6c-0.4-0.5-0.8-1.1-1.2-1.7c-1.3,0.2-1.5,0.1-2.9-1.4c0.2,0.4,0.4,0.9,0.7,1.3c0.4,0.6,1.2,1,0.5,2
			c-0.2,0.3,0.1,1,0.1,1.5c0,1.6-0.5,2-2,1.4c-0.7-0.3-1.5-0.6-1.9-1.2c-1-1.3-2.3-2.1-3.7-3c-0.3-0.2-0.7-0.3-0.9-0.6
			c-0.5-0.4-1-0.8-1.7-0.2c-0.6,0.6-1,1.3-0.6,2.2c0.4,0.7,0.8,1.4,1,2.2c0.2,0.8,0.2,1.6,0.2,2.5c-1.7-0.3-2.4-0.9-2.4-2.1
			c0-1.7-1.3-2.5-2.1-3.6c-1.2-1.6-2.3-3.1-2-5.2c0.2-1.3,0.6-2.1,2.2-1.9c-0.1-2.8,1.9-4.5,3.2-6.6c0.5-0.8,0.6-1.9,0.9-2.9
			c0-0.1-0.1-0.3,0-0.4c1.4-1.1,1.4-3.5,3.5-4c0.2,0,0.3-0.8,0.2-1.2c-0.2-0.9-0.4-1.9-0.9-2.6c-0.4-0.6-1.2-0.9-1.8-1.4
			c-0.8-0.7-1.6-1.5-2.6-2.3c-0.1-0.1-0.5-0.4-0.9-0.6c-0.9-0.5-1.9-1-2.8-1.6c-0.3-0.2-0.8-0.6-0.8-0.9c-0.1-0.6-0.3-0.7-0.9-0.9
			c-0.7-0.2-1.2-0.7-1.9-1.1c0.2,0.6,0.4,1.2,0.7,1.7c0.3,0.6,0.2,0.9-0.3,1.3c-1.4,1.1-2.6,2.4-2.4,4.2c0.3,2.3-0.5,4.3-1.5,6.2
			c-0.1,0.1-0.1,0.3-0.1,0.4c1,1.8,0.9,2.6-0.6,3.8c0.3,0.2,0.5,0.4,1,0.8c-0.7,0.3-1.2,0.5-1.9,0.8c-0.1-0.9-0.3-1.2-1.1-0.9
			c-0.5,0.2-1.2,0.1-1.8,0c-1.1-0.1-1.6-1.1-1.2-2.4c0.2-0.6,0.4-1.3,0.8-1.7c1.2-1.2,1-2.7,1.2-4.2c0.3-1.7,0.7-3.5,1.2-5.2
			c0.2-0.6,0.6-1.1,1-1.6c-1.6-1.2-1.9-2.1-1-4.1c-1.3-0.4-0.9-1.6-0.9-2.4c-0.1-1.8,1-3.2,2.1-4.5c0.2-0.2,0.4-0.5,0.7-0.9
			c-1.4,0.1-1.5-0.2-0.9-2.1c-0.6-0.1-1-0.1-1,0.7c0,2.6-1.5,4.7-2.6,6.9c-0.6,1.2-1.2,2.3-1.8,3.5c-0.3,0.6-0.5,1.2-0.7,1.9
			c-0.5,0.1-1.1,0.1-1.7,0.2c0.2,0.7,0.3,1.7,0.7,2.5c0.4,0.9-0.2,1.4-0.8,1.8c-0.7,0.4-1.4,0.7-2.1,1c-0.3,0.1-0.5,0.3-0.8,0.5
			c-0.5,0.3-0.9,0.8-1.4,0.9c-0.7,0.1-1.3-0.5-1.4-1.2c0-0.5,0.4-1,0.7-1.5c0.1-0.2,0.3-0.3,0.5-0.4c-0.4-0.7-0.8-1.4-1.2-1.9
			c-0.3,0.5-0.6,1.1-1.1,1.6c-0.5,0.6-1.3,0.9-2,0.2c-0.7-0.7-0.5-1.6,0-2.1c0.7-0.7,0.7-1.4,0.6-2.1c-0.2-1.7,1.3-2.6,2.6-2.8
			c0.9-0.2,1.7-0.9,2.5-1.4c1-0.7,1.6-0.7,2,0.3c0.1-0.1,0.2-0.2,0.3-0.3c0.6-0.7,1.2-1.3,1.6-2.2c0.8-2,2.6-3.2,4.3-4.4
			c0.1,0,0.1-0.1,0.1-0.1c-0.5-1.3,0.1-2.8,1.2-2.9c0.1-0.8,0.1-1.7,0.3-2.5c0.1-0.4,0.7-0.6,1.1-0.8c0.2-0.2,0.5-0.3,0.6-0.5
			c0.1-0.1-0.1-0.4-0.3-0.6c-0.5-0.6-0.3-1.3,0.4-1.6c0.4-0.1,0.9-0.1,1.3-0.3c0.6-0.2,0.7-1.2,0.3-1.9c-0.8,0.3-1.3,1.5-2.4,1
			c0.2-0.5,0.3-1.1,0.5-1.6c-0.6,0.2-1.2,0.5-1.8,0.8c0.5,0.3,0.9,0.6,1.4,0.9c-0.5,1.5-0.7,3.1-2,4.1c-0.9,0.8-2,1.1-3.2,0.6
			c-0.2-0.1-0.5,0-0.7,0.1c-1.5,0.7-3,1.3-4.7,1.2c-0.3,0-0.6,0.2-0.8,0.4c-0.9,0.6-2.1,0.3-2.4-0.7c-0.1-0.2-0.2-0.4-0.2-0.5
			c-0.5,0-1,0.2-1.1,0.1c-0.2-0.3-0.3-0.9-0.2-1.2c0.1-0.3,0.6-0.7,0.9-0.7c0.8,0,1.7,0.2,2.5,0.2c0.3,0,0.6-0.3,0.6-0.5
			c0.4-0.9,0.8-1.7,1.2-2.5c-0.5-0.3-1.1-0.6-1.6-0.9c-0.1-0.1-0.2-0.1-0.3-0.2c-1.2-0.2-1.3-0.2-0.5-1.3c-0.9-0.3-0.8-0.8-0.8-1.7
			c0.1-1.3,0.5-1.9,1.8-2.2c0.4-0.1,0.6-0.7,1-0.9c1-0.5,2.4,0,3.2,0.9c0.2-0.4,0.4-0.8,0.6-1.3c-1.9-0.3-4.1,0.8-5.1-1.9
			c1.3-1.6,5.2-2.6,6.6-1.7c0.2-0.5,0.3-1.1,0.6-1.6c0.3-0.5,0.8-0.8,1.4-1.3c-0.8-0.1-1.7-0.2-2.5-0.3c0-0.3,0-0.7,0.1-0.7
			c1.4-0.5,0.7-2,1.3-2.9c0.4-0.6,0.8-1.2,1.3-1.9c-0.8-1.3,0.5-2.7,1.9-3.2c-0.2-0.4-0.3-0.7-0.5-1.2c-0.3,0.3-0.7,0.6-0.9,1.1
			c-0.6,1.8-2.2,2.8-3.3,4.2c-0.2,0.3-1,0.2-1.4,0c-0.2-0.1-0.4-0.7-0.4-1c0.1-1.4,0-2.9,1.5-3.8c0-0.1-0.1-0.2-0.1-0.3
			c-0.3,0.1-0.6,0.3-0.8,0.4c-0.1,0.1-0.1,0.3-0.2,0.3c-0.4,0.3-0.8,0.5-1.2,0.8c-0.2-0.4-0.4-0.8-0.6-1.2c-0.1-0.1,0-0.3-0.1-0.5
			c-0.8,0.2-1.6,0.4-2.4,0.7c-0.8,0.3-1.2-0.1-1.3-0.8c0-0.1,0-0.2,0-0.2c-1.6-0.2-1.4-2.1-2.5-2.8c-0.7-0.5-0.5-1.2-0.2-2
			c0.1-0.4,0.1-0.9,0.1-1.4c-0.1,0-0.2,0-0.3-0.1c-0.3,0.6-0.7,1.2-1,1.8c-1.9-0.7-3.6-1.7-4.6-3.6c-0.1-0.3,0.1-0.8,0.2-1.1
			c0.1-0.3,0.4-0.4,0.4-0.7c0.2-1.2,0.7-1.4,1.7-0.9c0.1,0.1,0.3,0.2,0.4,0.3c0.3-0.2,0.6-0.5,0.7-0.5c-0.3-0.8-0.6-1.5-0.7-2.3
			c0-0.4,0.5-0.8,0.7-1.3c0.4,0.3,0.9,0.6,1,1c0.3,1.1,1.2,1.5,2.1,1.9c0.1,0.1,0.6-0.2,0.6-0.2c-0.1-0.8-0.3-1.5-0.3-2.3
			c0-0.6,0-1.1,0.2-1.7c0.1-0.4,0.4-0.8,0.6-1.1c0.6-1.1,1-1.2,2.1-0.5c2.3,1.6,3.6,5,3,7.8c-0.2,0.8-0.9,1.8,0.2,2.6
			c0.1-1.1,0.1-2.1,1.1-2.8c0.3-0.2,0.4-1.2,0.3-1.7c-0.2-1.3,0.4-2.1,1.7-2c0.1,2.8-2,5.3-0.6,8.3c0.3,0.3,0.9,0.7,1.4,1.1
			c0.1,0.5-1,0.9-0.5,0.9c0.4-0.2,0.8-0.5,1.2-0.5c0.3,0,0.6,0.3,1.2,0.6c0.2-0.3,0.4-0.8,0.7-1.3c0.3-0.4,0.6-0.7,0.8-1.3
			c-0.6,0.3-1.1,0.7-1.8,1c-0.2,0.1-0.7,0-0.8-0.1c-0.2-0.3-0.3-0.7-0.3-1.1c0-0.5,0.2-1.1,0.4-1.6c0.3-0.8-0.2-0.9-0.7-1.1
			c-0.1,0-0.1-0.2-0.1-0.4c-0.5-1.5-0.1-2.9,0.5-4.3c0.3-0.6,1-0.6,2-0.3c-0.3-0.3-0.5-0.7-0.8-1c-1.5-1.2-0.7-2.6,0.5-3.4
			c-2.1-1.4-1.2-3.5-1.5-5.6c1.2,0.1,2.2,0.1,3.3,0.2c0,0-0.1-0.2-0.1-0.5c0-0.8,0.4-1.4,1.1-1.5c0.4,0,1,0.4,1.4,0.8
			c0.3,0.3,0.5,0.9,0.8,1.5c0.1-0.7-1-1.8,0.7-1.5c0.2,0,0.6-0.4,0.8-0.7c0.4-0.7,1.2-1,1.8-0.5c0.4,0.3,0.8,0.5,1.3,0.7
			c0.1-0.1,0.2-0.3,0.3-0.4c-0.9-0.8-1.7-1.6-2.5-2.3C62.2,27.4,62.5,29.1,61.2,28.4L61.2,28.4z M64.1,71.4c-0.1,0-0.1-0.1-0.2-0.1
			c-1.5,1.6-2.9,3.1-4.4,4.7c0.1,0,0.1,0.1,0.2,0.1c0.7-0.4,1.4-0.8,2.1-1.2C62.5,73.8,63.3,72.6,64.1,71.4z M69.6,98.7
			c0.1,1.1,0.2,2.1,0.3,3c0.4-0.7,0.8-1.3,1.1-2c0-0.1,0-0.2,0-0.3c-0.1-0.5-0.2-1.1-0.3-1.5C70.4,98.1,69.9,98.4,69.6,98.7z
			 M61.9,93.7c0.2,1,0.5,1.9,0.7,2.9c0,0,0.1,0,0.1,0c0.1-1,0.1-2,0.2-3C62.6,93.6,62.3,93.6,61.9,93.7z M86.1,41.7
			c-1.4,0.5-1.7,0.9-1.7,1.7C85,42.8,85.7,42.2,86.1,41.7z M86.8,36.6c-0.7,0.6-1.1,0.9-1.5,1.3c0.6,0,1.2-0.2,1.7-0.4
			C87.1,37.5,86.9,37,86.8,36.6z"/>
		<path class="st2" d="M61.2,28.4c0.1-0.4,0.3-0.9,0.2-1.3c-0.2-0.7,0.4-1.4-0.4-2.1c-0.2-0.1,0-1.2,0.3-1.4c0.3-0.2,1-0.1,1.5,0
			c0.6,0.2,1.1,0.5,1.5,0.6c0-0.8,0.1-1.3,0.1-1.9c-0.8-1.1-1.6-2.1-2.3-3.3c-0.1-0.1,0.2-0.7,0.5-0.9c0.2-0.2,0.7-0.2,0.9,0
			c1.4,0.9,2.5-0.2,3.8-0.3c-0.5-1.2-0.9-2.3-1.3-3.5c-0.1-0.2,0-0.5,0.1-0.6c0.8-0.8,1.5-1.6,2.3-2.4c-1.1-0.5-1.2-2.1-0.5-2.8
			c0.9-0.9,1.3-1.9,1.3-3.1c0-0.2,0.1-0.4,0.3-0.8c1.3,0.5,2.6,1,3.9,1.6c0,0,0.4-0.3,0.5-0.3c0.9,0.7,1.7,1.4,2.5,2.1
			c0.2-0.7,0.5-1.9,1.9-1.4C79,7.1,79.8,7.7,81,8.4c1.2-0.1,3,0.1,4.3-1.5c0.2,0.1,0.5,0.3,0.8,0.4c0.2-0.2,0.4-0.3,0.5-0.6
			c0.4-0.7,1-0.7,1.3-0.1c0.4,0.8,1.1,0.7,1.7,0.7c1.4-0.1,2.7-0.6,3.7-1.6c0.8-0.7,1.6-0.4,2.5-0.2c0.9,0.2,1.9,0.4,2.7,0.6
			c-0.1-0.7-0.3-1.2-0.2-1.7c0.1-0.5,0.6-1,1.2-0.5c1.1,0.9,2.4,0.2,3.2,0.6c0.5-0.6,0.9-1.5,1.2-1.5c0.8,0,0.8,0.8,0.5,1.4
			c0.1,0.1,0.1,0.1,0.2,0.1c1.8,0.1,2.1,0.5,1.3,2.2c-0.4,0.8-1,1.6-1.4,2.4c-0.5,0.9-0.3,1.2,0.7,1.3c0.7,0.1,1.1,0.5,0.8,1.2
			c-0.6,1.3-1.3,2.5-2,3.7c-0.8,1.4-2.2,2-3.6,2.7c-0.5,0.3-1.1,0.6-1.5,1.1c-1.6,2.6-4,4.5-6.4,6.3c-0.4,0.3-0.7,0.6-1.1,0.9
			c-0.8,0.7-1.7,1.3-2.4,2.1c-0.5,0.5-1.1,1.2-0.8,2.1c0.3,0.8-0.4,1.5-1.6,2.1c0.4,0,0.7,0,1.1-0.1c0.6-0.3,1.2-0.4,1.7,0.2
			c0.1,0.1,0.4,0,0.6-0.1c0.3-0.2,0.5-0.6,0.8-0.8c0.3-0.2,0.8-0.3,1.1-0.4c0,0.4,0.2,0.9,0.1,1.2c-0.7,1.2-1.5,2.4-2.3,3.5
			c-0.5,0.7-1.3,1.2-1.8,1.9c-0.5,0.7-0.7,1.5-1.1,2.4c1.2,0,2.4,0,3.5,0c0.2,0,0.4-0.2,0.6-0.4c1.2-1.3,2.8-1.8,4.5-2.1
			c0.3-0.1,0.7-0.2,0.9-0.4c1.4-1.5,3.1-1.5,5-0.9c1.3,0.4,2.6,0.8,3.9,1.1c0.4,0.1,0.9,0,1.3-0.2c1.3-0.7,2.5-0.6,3.9-0.4
			c2.2,0.4,4.4,0.8,6.6,0.7c1.2,0,2.4-0.3,3.7-0.1c0.2,0,0.5,0,0.8-0.2c1.7-0.8,3.8-0.2,5.1,1.3c0.9,0.9,1.3,2,1.5,3.2
			c0.1,0.8,0.7,1.5,1,2.2c-0.1,0.3-0.1,0.7-0.3,1c-0.5,0.9-0.9,1.8-1.5,2.6c-1.3,1.8-2.9,3.5-3.6,5.7c-0.2,0.7-0.4,1.6-0.2,2.3
			c0.3,1.6-0.4,2.9-1.2,4.2c-0.6,1-0.8,2-1,3.2c-0.2,1.2-0.9,2.4-1.6,3.5c-0.6,0.9-1.6,1.5-2.3,2.3c-0.3,0.3-0.4,0.8-0.5,1.2
			c-0.1,0.3-0.1,0.7-0.3,1.1c-0.4,1-1,1.8-1.1,3c-0.1,0.7-1.1,1.3-1.7,1.9c-0.7,0.7-1.5,1.5-2.3,2.1c-0.5,0.3-1.2,0.3-1.8,0.5
			c0,0.9,0,1.9,0,3c0.8,0.3,1.7,0.6,2.4,1c0.6,0.3,1.3,0.8,1.6,1.4c0.3,0.8-0.2,1.5-1,2.1c-1.6,1.2-3.3,1.7-5.3,1.3
			c-0.4-0.1-1,0.4-1.5,0.8c-1.3,1-2.4,2.1-2.7,3.6c-1.5,0.4-2.8,0.8-4.2,1.2c2.1,0.5,4,1,6,1.5c0.8,0.2,2.8-0.8,3-1.8
			c0.3-1.2,1-1.6,2-1.8c1.3-0.3,3.6,0.1,4,1.6c1.2,0.6,2.3,1,3.2,1.6c1.1,0.7,2.1,1.4,3.5,1.5c1.2,0.1,1.9,1.2,2.2,2.3
			c0.6,2.1,2.1,3.5,3.5,5c0.1,0.1,0.5,0.1,0.7,0.1c1,0,1.3,0.3,1.4,1.4c0,0.5,0.1,1,0.9,1.1c1.4,0.3,1.8,1.6,2.1,2.8
			c0.3,1.3,0.7,2.5,0.5,3.9c-0.1,0.9,0.5,1.9,0.5,2.8c0,1.5,0.7,2.9,0.8,4.3c0.1,1.5,0.5,2.8,1.2,4c1.2,2.2,1.8,4.6,2.2,7.1
			c0.3,1.8,1.1,3.4,2.9,4c-0.1,0.7-0.3,1.4-0.3,1.8c0.6,0.1,1.1,0,1.6,0.2c1.7,0.7,3.4,1.5,5.2,2.2c3.6,1.4,6,3.8,7.1,7.6
			c0.5,1.9,1,2.3,2.8,3.2c-0.2,1.1,0.5,1.5,1.4,1.8c0.6,0.2,1.2,0.6,1.8,1c0.5,0.4,0.4,0.7-0.2,1c-1.9,0.9-2.2,1.6-1.8,3.6
			c0.6,2.7,2.4,4.8,3.8,7c0.8,1.3,1.5,2.7,2.3,4.1c0.2,0.3,0.2,0.8,0.1,1.1c-0.1,0.3-0.5,0.5-0.7,0.8c-0.2-0.2-0.4-0.5-0.5-0.7
			c-0.2-0.4-0.2-0.9-0.4-1.4c-1.6,0.9-3.1,0.5-4.4-0.3c0,0.1-0.1,0.2-0.1,0.2c0.9,0.6,1.9,1.1,2.6,1.9c1.8,1.8,4.3,2.8,5.3,5.4
			c0.8,2,1.6,3.9,2.1,6c0.4,1.8-0.4,3.4-1.8,4.6c-1.3,1.2-2.6,2.5-4.1,3.9c1.7,0.3,2.3,1.7,3.3,2.5c0.3,0.2,0.6,0.4,1,0.4
			c0.4,0.1,0.9,0.1,1.5,0.1c0.4-0.9,0.8-2.2,1.3-3.4c0.7-1.5,1.5-1.9,3.1-1.7c0.2,0,0.4-0.1,0.7-0.2c0.4-0.1,0.8-0.2,1.3-0.2
			c1.3,0.1,2.7,0.8,3.7,0.4c1.5-0.6,2.7,0.1,3.9,0.4c1.4,0.3,2.8,0.6,4,1.2c1,0.5,1.8,1.5,2.9,2.1c2.5,1.4,3.7,3.6,4.2,6.3
			c0.5,2.5,0.9,5-0.1,7.5c-0.6,1.5-1.2,2.9-1.7,4.4c-0.3,0.9-0.2,1.8-0.4,2.7c-0.3,1.6-1,2.8-2.6,3.4c-0.3,0.1-0.5,0.4-0.7,0.7
			c-0.5,0.6-0.9,1.3-1.4,2c-0.1,0.2-0.4,0.3-0.6,0.4c-0.5,0.2-1.1,0.5-1.6,0.8c1,0.4,1,1,0.6,1.8c-0.8,1.6-2.8,2.6-4.6,2.4
			c-0.5-0.1-1.1,0-1.9,0c0.9,1.3,1,2.3,0.5,3.3c-0.1,0.2,0,0.5,0,0.7c0,0.3,0,0.6-0.2,0.8c-1.2,1.6-2.7,2.6-4.8,2.4
			c-0.4,0-0.9,0.1-1.4,0.2c0.8,0.5,2,0.2,2.2,1.5c2.3-0.3,3.9,0.6,4.1,2.5c0.9-0.2,1.7-0.3,2.5-0.5c1.8-0.3,3.6-0.6,5.4-0.8
			c0.4,0,1.3,0.2,1.3,0.4c0.1,0.5-0.1,1.1-0.3,1.7c-0.1,0.3-0.5,0.4-0.6,0.7c-0.1,0.3-0.3,0.8-0.2,1.1c1.2,2.6-0.2,4.4-2.3,5.3
			c-0.7,0.3-1.5,0.5-2.3,0.6c-2.3,0.6-3.4,2.4-2.9,5c-1.1-0.1-2.3-0.3-3.4-0.4c-0.9-0.1-1.6,0.3-2.1,1.1c-0.2,0.3-0.5,0.4-0.8,0.6
			c-1.6,0.6-3.3,1-4.9,1.7c-0.6,0.2-1.2,0.8-1.6,1.4c-0.4,0.6-0.8,0.8-1.5,0.6c-2.1-0.7-4.2-1.4-6.3-2c-1.3-0.4-2.5-0.3-3.9,0
			c-2,0.5-4.1,0.8-6.2,1.3c-0.2,0-0.5,0.1-0.6,0.3c-0.9,1.1-1.4,1.2-2.6,0.4c-0.5-0.3-0.9-0.7-1.3-1c-2.2-0.3-4.7,0.6-6.6-1.9
			c0,0.6,0,0.9,0,1.3c1.3,0.4,2.6,0.9,4,1.4c0.1,0.1,0.4,0.4,0.5,0.7c0.1,0.4,0,1-0.2,1.3c-0.5,0.7-1.3,1.2-1.8,1.9
			c-0.9,1.2-2.3,1.4-3.4,0.4c-1.2-1.2-2.7-1.8-4.4-2c0.2-0.4,0.3-0.8,0.5-1.2c-0.6-0.3-1.3-0.7-1.9-0.7c-0.5,0-1.1,0.5-1.7,0.8
			c-1.3-0.7-2.5,0-2.6,1.7c0,1.2-0.6,1.8-1.8,1.7c-1.5-0.2-3-0.5-4.4-0.8c-0.8-0.1-1.6-0.3-2.4-0.4c-0.6,0-1,0.4-0.8,1
			c0.1,0.4,0.4,0.8,0.6,1.4c-0.5,0.6-1,1.2-1.6,1.8c-0.1-0.2-0.2-0.3-0.2-0.3c0.6-1.8-0.4-2.8-1.6-3.7c-1.1-0.7-2.2-1.4-3.3-2.1
			c-1.1-0.7-2.3-0.7-3.6-0.4c-1.3,0.3-2.6,0.5-3.9,0.8c-0.8,0.2-1.5,0.8-2.1,1.3c-0.7,0.5-1.3,1-2.2,0.8c-0.1,0.3-0.1,0.8-0.3,1
			c-0.9,0.7-0.8,1.6-0.8,2.6c0,0.2-0.1,0.5-0.2,0.7c-0.5,0.4-0.3,0.7,0,1.1c0.6,1,0.1,1.9-1,2.2c-0.5,0.2-1.1,0.9-1.2,1.5
			c-0.3,1.1-0.6,2-1.8,2.1c-1.3,0.1-2.6-0.3-3.3-1.5c-0.5-0.8-0.9-1.3-2-1c-1.3,0.4-1.9-0.7-2.7-1.4c-1.1,1.1-1.1,1-2.5,0.1
			c-0.4-0.3-1.2-0.2-1.7-0.1c-1,0.2-1.9,0.7-2.9,0.8c-1.1,0.1-2.2,0-3.4-0.1c0,0.2-0.1,0.6-0.3,1c-0.3,0.9-0.6,1.8-1.9,1.9
			c-0.7,0.1-1.3,1-2,1.4c-0.4,0.3-0.8,0.4-1.3,0.4c-0.2,0.3-0.4,0.5-0.5,0.8c-0.1,0.3-0.1,0.6,0.1,0.8c0.6,0.9,0.4,1.7-0.5,2.2
			c-0.8,0.5-1.6,1.2-2.4,1.8c-0.6-1-1.3-2-1.9-3.1c-0.7-1.3-1.9-1.3-3.1-1.6c-0.2,0-0.5,0.5-0.7,0.8c-0.5,0.7-0.9,1.6-2,1.6
			c-1.3,0.1-1.9-0.8-1.9-2.2c0-1.1,0.3-2.2,1.7-2.6c0.8-0.2,1.5-0.7,2.3-1c0.3-0.1,0.7,0,1,0c0.2,0,0.5,0,0.7-0.1
			c1.4-1.2,3.2-1.9,4.2-3.6c0.2-0.4,0.3-0.8,0.5-1.2c0.2-0.4,0.5-0.8,0.8-0.9c0.8-0.2,0.9-0.8,1-1.4c0.2-0.7,0.2-1.8,0.7-2.1
			c0.8-0.6,1.6-1.4,2.7-1.4c0.7,0,1.4-0.1,1.5-0.9c0.2-1.4,1.5-2,2.2-2.9c0.8-1,1.3-2.2,1.9-3.4c0.2-0.4-0.1-1-0.2-1.4
			c-0.2-0.8-0.9-1.5,0.3-2.2c0.2-0.1,0.2-0.8,0.3-1.5c1,0.2,2.1,0.4,3.2,0.7c0.7,0.2,1.1,0,1.5-0.5c0.7-0.8,1.1-1.5,0.6-2.6
			c-0.5-1.2,1-2.8,2.4-3c1.4-0.2,2.8-0.3,4.1-0.4c2-0.2,4,0,6,0.1c1.3,0,2.2,0.8,3.4,1c1.2,0.2,2.3,0.1,3.5-0.3
			c0.4-0.2,1-0.2,1.4-0.2c1.2,0,1.5-0.5,1.4-1.7c-0.1-0.7,0.2-1.5,0.4-2.2c0.6-1.8,2.3-2.7,3.5-4.1c0.1-0.1,0.3-0.2,0.5-0.3
			c1.6-0.9,1.8-1.2,2.9-3.4c-0.6,0.5-1.2,0.8-1.6,1.2c-0.9,1-2.1,1.4-3.3,1.4c-1,0-2,0.1-2.7,0.9c-0.7,0.8-1.9,1.3-1.8,2.7
			c0,0.2-0.4,0.5-0.7,0.6c-3.3,1.1-6.3,0.8-8.8-2c-0.3-0.3-0.9-0.3-1.1-0.6c-0.5-0.7-0.8-1.6-1.3-2.4c-0.2-0.4-0.5-0.8-0.9-1.2
			c-0.6-0.6-1.3-0.2-1.8,0.1c-0.1,0.1,0.1,0.8,0.2,1.2c-0.5,0-1.2-0.1-1.9,0c-0.6,0.1-1.3,0.3-1.9,0.5c-0.8,0.3-1.6,0.5-2.3-0.2
			c-0.6-0.6-1-1.4-0.6-2.3c0.4-1,1.3-0.9,2.2-1.1c-0.2,0-0.5-0.1-0.7-0.1c-1.5,0.3-2.8-0.6-2.9-2c-1.1,0.1-2.2,0.2-3.3,0.3
			c-1.2,0.1-1.6,0.5-1.8,1.6c-0.2,1-1.1,1-1.8,1c-0.9,0.1-1.6,0.2-2.3,0.9c-0.4,0.5-2.1,0.3-2.6-0.3c-0.6-0.7-1.2-1.4-1.8-2.2
			c-1.2,0.6-1.2-0.9-2.1-1.1c-0.2,0.1-0.5,0.3-0.8,0.2c-0.2-0.1-0.5-0.5-0.5-0.7c0.1-0.3,0.7-0.6,0.7-0.6c1,0.9,1.5-0.3,2.2-0.6
			c0.5-0.2,0.9-0.7,0.6-1.5c-0.3-0.7-0.8-0.7-1.4-0.7c-0.7,0-1.3,0.1-2,0.2c-0.2,0-0.5-0.1-0.6-0.3c-0.1-0.2-0.1-0.6,0-0.8
			c0.8-1.1,1.9-1.8,3.2-2.3c0.7-0.2,1.3-0.7,1.4-1.6c0-0.3,0.8-0.7,1.2-0.8c1,0,2.1,0.2,3.3,0.3c-0.1-0.4-0.1-0.6-0.1-0.6
			c1-0.8,1.9-1.7,2.9-2.4c0.5-0.4,1.3-0.6,1.9-0.7c1-0.1,1.8,0,2.6-0.9c0.7-0.8,1.8-1.3,2.8-1.9c2.2-1.2,3.1-3.2,3.5-5.5
			c0.2-1,0.4-1.9,0.7-3c-1.5-1.1-1.9-2.6-0.1-5.2c-0.8-1.2-2-2.1-1.4-3.8c0.4-1.1-0.1-1.7-1.3-1.5c-1.1,0.1-2.2,0.4-3.2,0.8
			c-0.5,0.3-1,1-1.2,1.7c-0.3,1-0.7,1.4-1.4,0.8c-1-0.9-1.9-0.2-2.8,0c-0.5,0.1-1.1,0.1-1.7,0.1c0.5-2,1.6-3.3,2.9-4.4
			c1.2-0.9,2.5-1.8,3.6-2.7c0.4-0.3,0.7-0.9,1-1.4c0.6-1.2,0.4-1.2-0.6-1.9c-1.1-0.8-1.9-2-2.8-3.1c-0.4,0-1,0.2-1.1-0.7
			c0-0.3-0.7-0.4-1-0.7c-0.4-0.3-1.1-0.5-0.6-1.2c0.4-0.6,0.7-1.2,1.6-0.7c0.1,0.1,0.3,0.1,0.4,0.1c0.1-0.6,0.2-1.3,0.3-1.9
			c0-0.2,0.1-0.5,0.2-0.5c1.2-0.4,2.4-0.8,3.7-0.9c1-0.1,1.8,0.8,2.3,1.7c0.3,0.5,0.6,1,0.8,1.5c0.2,0.4,0.5,0.5,1.1,0.4
			c1.6-0.5,2.3,0.3,1.8,2.1c1.1-0.5,2-0.9,3-1.3c-0.2-1.5,0.1-1.7,1.4-1.2c0.3,0.1,0.5,0.2,0.7,0.4c1.6,1.4,3.2,0.7,4.8,0
			c1.2-0.5,2.5-1.2,3.8-0.7c0.8,0.2,1.4,0.8,2,1.1c0.1-0.7,0.1-1.6,0.2-2.5c0.2-1.2,1.2-1.2,2.1-1.4c-0.3-0.8-0.5-1.6-0.9-2.3
			c-1-1.6-0.1-2.8,0.9-3.9c0.5-0.6,1.2-1.2,1.9-1.9c-1.2-0.1-2-0.7-2.2-1.7c-0.2-0.9-0.2-1.9-0.3-2.8c0-0.2,0.1-0.3,0.1-0.5
			c0.3-2.1,0.4-2.3,2.6-2.5c0.4-0.1,0.8-0.4,1.3-0.7c-1.5-1.2-1.5-1.9-0.4-3c1.2-1.2,1.3-1.6,0.4-3.1c-0.4,0.4-0.7,0.9-1.2,1
			c-0.5,0.1-1.2-0.1-1.9-0.2c-0.2,0.4-0.6,1.2-1.1,1.9c-0.5,0.6-1.1,1.2-1.6,1.7c-1.8-0.8-2.4-2.6-1.4-4.2c-1.8-0.5-2.9-2-3.1-3.9
			c-0.1-1.4-1.1-2.3-1.8-3.3c-0.7-1-1.4-2.1-2.1-3.2c-0.1-0.3-0.1-0.7,0-1c0.4-1.2,0.8-2.4,1.2-3.5c0-0.1,0-0.3,0.1-0.4
			c1.1-2.1,2.1-4.2,3.1-6.4c0.4-0.9,1.1-1.4,2.2-0.9c-0.2-0.2-0.4-0.4-0.7-0.6c0.3-0.4,0.6-0.8,0.9-1.3c-1.3-0.1-2.5-0.3-3.8-0.4
			c-0.8-0.1-1.2,0.2-1.2,1.1c0.1,1.6-0.4,2-2,2.2c-0.9,0.1-1.8,0.4-2.9,0.7c0,1.5-1.5,1.9-2.5,2.6c-0.3,0.2-0.9,0.3-1,0.1
			c-0.9-0.9-2.2,0.4-3-0.6c-0.4-0.5-0.8-1.1-1.2-1.7c-1.3,0.2-1.5,0.1-2.9-1.4c0.2,0.4,0.4,0.9,0.7,1.3c0.4,0.6,1.2,1,0.5,2
			c-0.2,0.3,0.1,1,0.1,1.5c0,1.6-0.5,2-2,1.4c-0.7-0.3-1.5-0.6-1.9-1.2c-1-1.3-2.3-2.1-3.7-3c-0.3-0.2-0.7-0.3-0.9-0.6
			c-0.5-0.4-1-0.8-1.7-0.2c-0.6,0.6-1,1.3-0.6,2.2c0.4,0.7,0.8,1.4,1,2.2c0.2,0.8,0.2,1.6,0.2,2.5c-1.7-0.3-2.4-0.9-2.4-2.1
			c0-1.7-1.3-2.5-2.1-3.6c-1.2-1.6-2.3-3.1-2-5.2c0.2-1.3,0.6-2.1,2.2-1.9c-0.1-2.8,1.9-4.5,3.2-6.6c0.5-0.8,0.6-1.9,0.9-2.9
			c0-0.1-0.1-0.3,0-0.4c1.4-1.1,1.4-3.5,3.5-4c0.2,0,0.3-0.8,0.2-1.2c-0.2-0.9-0.4-1.9-0.9-2.6c-0.4-0.6-1.2-0.9-1.8-1.4
			c-0.8-0.7-1.6-1.5-2.6-2.3c-0.1-0.1-0.5-0.4-0.9-0.6c-0.9-0.5-1.9-1-2.8-1.6c-0.3-0.2-0.8-0.6-0.8-0.9c-0.1-0.6-0.3-0.7-0.9-0.9
			c-0.7-0.2-1.2-0.7-1.9-1.1c0.2,0.6,0.4,1.2,0.7,1.7c0.3,0.6,0.2,0.9-0.3,1.3c-1.4,1.1-2.6,2.4-2.4,4.2c0.3,2.3-0.5,4.3-1.5,6.2
			c-0.1,0.1-0.1,0.3-0.1,0.4c1,1.8,0.9,2.6-0.6,3.8c0.3,0.2,0.5,0.4,1,0.8c-0.7,0.3-1.2,0.5-1.9,0.8c-0.1-0.9-0.3-1.2-1.1-0.9
			c-0.5,0.2-1.2,0.1-1.8,0c-1.1-0.1-1.6-1.1-1.2-2.4c0.2-0.6,0.4-1.3,0.8-1.7c1.2-1.2,1-2.7,1.2-4.2c0.3-1.7,0.7-3.5,1.2-5.2
			c0.2-0.6,0.6-1.1,1-1.6c-1.6-1.2-1.9-2.1-1-4.1c-1.3-0.4-0.9-1.6-0.9-2.4c-0.1-1.8,1-3.2,2.1-4.5c0.2-0.2,0.4-0.5,0.7-0.9
			c-1.4,0.1-1.5-0.2-0.9-2.1c-0.6-0.1-1-0.1-1,0.7c0,2.6-1.5,4.7-2.6,6.9c-0.6,1.2-1.2,2.3-1.8,3.5c-0.3,0.6-0.5,1.2-0.7,1.9
			c-0.5,0.1-1.1,0.1-1.7,0.2c0.2,0.7,0.3,1.7,0.7,2.5c0.4,0.9-0.2,1.4-0.8,1.8c-0.7,0.4-1.4,0.7-2.1,1c-0.3,0.1-0.5,0.3-0.8,0.5
			c-0.5,0.3-0.9,0.8-1.4,0.9c-0.7,0.1-1.3-0.5-1.4-1.2c0-0.5,0.4-1,0.7-1.5c0.1-0.2,0.3-0.3,0.5-0.4c-0.4-0.7-0.8-1.4-1.2-1.9
			c-0.3,0.5-0.6,1.1-1.1,1.6c-0.5,0.6-1.3,0.9-2,0.2c-0.7-0.7-0.5-1.6,0-2.1c0.7-0.7,0.7-1.4,0.6-2.1c-0.2-1.7,1.3-2.6,2.6-2.8
			c0.9-0.2,1.7-0.9,2.5-1.4c1-0.7,1.6-0.7,2,0.3c0.1-0.1,0.2-0.2,0.3-0.3c0.6-0.7,1.2-1.3,1.6-2.2c0.8-2,2.6-3.2,4.3-4.4
			c0.1,0,0.1-0.1,0.1-0.1c-0.5-1.3,0.1-2.8,1.2-2.9c0.1-0.8,0.1-1.7,0.3-2.5c0.1-0.4,0.7-0.6,1.1-0.8c0.2-0.2,0.5-0.3,0.6-0.5
			c0.1-0.1-0.1-0.4-0.3-0.6c-0.5-0.6-0.3-1.3,0.4-1.6c0.4-0.1,0.9-0.1,1.3-0.3c0.6-0.2,0.7-1.2,0.3-1.9c-0.8,0.3-1.3,1.5-2.4,1
			c0.2-0.5,0.3-1.1,0.5-1.6c-0.6,0.2-1.2,0.5-1.8,0.8c0.5,0.3,0.9,0.6,1.4,0.9c-0.5,1.5-0.7,3.1-2,4.1c-0.9,0.8-2,1.1-3.2,0.6
			c-0.2-0.1-0.5,0-0.7,0.1c-1.5,0.7-3,1.3-4.7,1.2c-0.3,0-0.6,0.2-0.8,0.4c-0.9,0.6-2.1,0.3-2.4-0.7c-0.1-0.2-0.2-0.4-0.2-0.5
			c-0.5,0-1,0.2-1.1,0.1c-0.2-0.3-0.3-0.9-0.2-1.2c0.1-0.3,0.6-0.7,0.9-0.7c0.8,0,1.7,0.2,2.5,0.2c0.3,0,0.6-0.3,0.6-0.5
			c0.4-0.9,0.8-1.7,1.2-2.5c-0.5-0.3-1.1-0.6-1.6-0.9c-0.1-0.1-0.2-0.1-0.3-0.2c-1.2-0.2-1.3-0.2-0.5-1.3c-0.9-0.3-0.8-0.8-0.8-1.7
			c0.1-1.3,0.5-1.9,1.8-2.2c0.4-0.1,0.6-0.7,1-0.9c1-0.5,2.4,0,3.2,0.9c0.2-0.4,0.4-0.8,0.6-1.3c-1.9-0.3-4.1,0.8-5.1-1.9
			c1.3-1.6,5.2-2.6,6.6-1.7c0.2-0.5,0.3-1.1,0.6-1.6c0.3-0.5,0.8-0.8,1.4-1.3c-0.8-0.1-1.7-0.2-2.5-0.3c0-0.3,0-0.7,0.1-0.7
			c1.4-0.5,0.7-2,1.3-2.9c0.4-0.6,0.8-1.2,1.3-1.9c-0.8-1.3,0.5-2.7,1.9-3.2c-0.2-0.4-0.3-0.7-0.5-1.2c-0.3,0.3-0.7,0.6-0.9,1.1
			c-0.6,1.8-2.2,2.8-3.3,4.2c-0.2,0.3-1,0.2-1.4,0c-0.2-0.1-0.4-0.7-0.4-1c0.1-1.4,0-2.9,1.5-3.8c0-0.1-0.1-0.2-0.1-0.3
			c-0.3,0.1-0.6,0.3-0.8,0.4c-0.1,0.1-0.1,0.3-0.2,0.3c-0.4,0.3-0.8,0.5-1.2,0.8c-0.2-0.4-0.4-0.8-0.6-1.2c-0.1-0.1,0-0.3-0.1-0.5
			c-0.8,0.2-1.6,0.4-2.4,0.7c-0.8,0.3-1.2-0.1-1.3-0.8c0-0.1,0-0.2,0-0.2c-1.6-0.2-1.4-2.1-2.5-2.8c-0.7-0.5-0.5-1.2-0.2-2
			c0.1-0.4,0.1-0.9,0.1-1.4c-0.1,0-0.2,0-0.3-0.1c-0.3,0.6-0.7,1.2-1,1.8c-1.9-0.7-3.6-1.7-4.6-3.6c-0.1-0.3,0.1-0.8,0.2-1.1
			c0.1-0.3,0.4-0.4,0.4-0.7c0.2-1.2,0.7-1.4,1.7-0.9c0.1,0.1,0.3,0.2,0.4,0.3c0.3-0.2,0.6-0.5,0.7-0.5c-0.3-0.8-0.6-1.5-0.7-2.3
			c0-0.4,0.5-0.8,0.7-1.3c0.4,0.3,0.9,0.6,1,1c0.3,1.1,1.2,1.5,2.1,1.9c0.1,0.1,0.6-0.2,0.6-0.2c-0.1-0.8-0.3-1.5-0.3-2.3
			c0-0.6,0-1.1,0.2-1.7c0.1-0.4,0.4-0.8,0.6-1.1c0.6-1.1,1-1.2,2.1-0.5c2.3,1.6,3.6,5,3,7.8c-0.2,0.8-0.9,1.8,0.2,2.6
			c0.1-1.1,0.1-2.1,1.1-2.8c0.3-0.2,0.4-1.2,0.3-1.7c-0.2-1.3,0.4-2.1,1.7-2c0.1,2.8-2,5.3-0.6,8.3c0.3,0.3,0.9,0.7,1.4,1.1
			c0.1,0.5-1,0.9-0.5,0.9c0.4-0.2,0.8-0.5,1.2-0.5c0.3,0,0.6,0.3,1.2,0.6c0.2-0.3,0.4-0.8,0.7-1.3c0.3-0.4,0.6-0.7,0.8-1.3
			c-0.6,0.3-1.1,0.7-1.8,1c-0.2,0.1-0.7,0-0.8-0.1c-0.2-0.3-0.3-0.7-0.3-1.1c0-0.5,0.2-1.1,0.4-1.6c0.3-0.8-0.2-0.9-0.7-1.1
			c-0.1,0-0.1-0.2-0.1-0.4c-0.5-1.5-0.1-2.9,0.5-4.3c0.3-0.6,1-0.6,2-0.3c-0.3-0.3-0.5-0.7-0.8-1c-1.5-1.2-0.7-2.6,0.5-3.4
			c-2.1-1.4-1.2-3.5-1.5-5.6c1.2,0.1,2.2,0.1,3.3,0.2c0,0-0.1-0.2-0.1-0.5c0-0.8,0.4-1.4,1.1-1.5c0.4,0,1,0.4,1.4,0.8
			c0.3,0.3,0.5,0.9,0.8,1.5c0.1-0.7-1-1.8,0.7-1.5c0.2,0,0.6-0.4,0.8-0.7c0.4-0.7,1.2-1,1.8-0.5c0.4,0.3,0.8,0.5,1.3,0.7
			c0.1-0.1,0.2-0.3,0.3-0.4c-0.9-0.8-1.7-1.6-2.5-2.3C62.2,27.4,62.5,29.1,61.2,28.4L61.2,28.4z M64.1,71.4c-0.1,0-0.1-0.1-0.2-0.1
			c-1.5,1.6-2.9,3.1-4.4,4.7c0.1,0,0.1,0.1,0.2,0.1c0.7-0.4,1.4-0.8,2.1-1.2C62.5,73.8,63.3,72.6,64.1,71.4z M69.6,98.7
			c0.1,1.1,0.2,2.1,0.3,3c0.4-0.7,0.8-1.3,1.1-2c0-0.1,0-0.2,0-0.3c-0.1-0.5-0.2-1.1-0.3-1.5C70.4,98.1,69.9,98.4,69.6,98.7z
			 M61.9,93.7c0.2,1,0.5,1.9,0.7,2.9c0,0,0.1,0,0.1,0c0.1-1,0.1-2,0.2-3C62.6,93.6,62.3,93.6,61.9,93.7z M86.1,41.7
			c-1.4,0.5-1.7,0.9-1.7,1.7C85,42.8,85.7,42.2,86.1,41.7z M86.8,36.6c-0.7,0.6-1.1,0.9-1.5,1.3c0.6,0,1.2-0.2,1.7-0.4
			C87.1,37.5,86.9,37,86.8,36.6z"/>
	</g>
	<g>
		<path class="st1" d="M31.9,26c-0.2-0.4-0.6-0.7-0.7-1.2c-0.2-0.9-0.6-1.9-0.4-2.7c0.2-1,0.7-1.9,1.3-2.8c0.2-0.3,0.8-0.5,1.1-0.4
			c0.7,0.1,1.4,0.4,2,0.6c0-0.2-0.3-0.7-0.1-0.9c0.2-0.2,0.7-0.2,1.2-0.3c-0.3-1.5,1-2,2-2.7c0.5-0.3,1.2-0.4,1.8-0.7
			c0.4-0.2,0.9-0.3,1.3-0.6c1.1-1,2.2-2.1,3.3-3.1c0.7-0.6,1.3-1.2,2.1-1.9c1.2,0.4,1.7,1.5,2,2.7c0.1,0.7,0.6,1.4-0.3,2
			c-0.2,0.1,0,0.8,0.1,1.1c0.3,0.6,0.1,1-0.4,1.5c-0.9,0.9-1.7,1.8-2.5,2.7c0.1,0.1,0.2,0.3,0.3,0.4c0.9-0.6,1.8-1.2,2.7-1.7
			c1,0.5,0.9,1.5,0.5,2.1c-0.9,1.7-2.6,1.2-4.2,0.9c0.6,1,0.4,1.7-0.4,2.3c1.3,2.1,0.7,3.7-1.4,3.9c0.4,2.1-1.4,3.4-3.9,2.9
			c0.1,1.1-0.1,1.2-1.9,1.4c0.6,1.2,0.3,1.8-0.9,2.3c-0.6,0.3-1.1,1-1.6,1.5C34.7,36,34.4,36.5,34,37c-1.9-1.2-3.5-2.6-4.2-5
			c0.7,0.2,1.3,0.4,2,0.6c0.2-0.2,0.5-0.6,0.8-0.8c-0.4-0.2-0.8-0.4-1.2-0.6c0.3-0.4,0.6-0.9,1-1.2c0.3-0.2,0.8-0.2,1.2-0.2
			c0.3,0,0.7,0.3,1,0.4c0-0.1,0.1-0.3,0.1-0.4c-0.7-0.2-1.5-0.4-2.2-0.6c-0.4-0.1-0.9-0.3-1.2-0.6c-0.6-0.4-0.7-1.5-1.8-1.4
			c0-0.5-0.2-1.2,0-1.3c0.4-0.3,1-0.2,1.5-0.2c0.1,0,0.3,0.3,0.4,0.4C31.7,26.1,31.8,26,31.9,26z"/>
		<path class="st2" d="M31.9,26c-0.2-0.4-0.6-0.7-0.7-1.2c-0.2-0.9-0.6-1.9-0.4-2.7c0.2-1,0.7-1.9,1.3-2.8c0.2-0.3,0.8-0.5,1.1-0.4
			c0.7,0.1,1.4,0.4,2,0.6c0-0.2-0.3-0.7-0.1-0.9c0.2-0.2,0.7-0.2,1.2-0.3c-0.3-1.5,1-2,2-2.7c0.5-0.3,1.2-0.4,1.8-0.7
			c0.4-0.2,0.9-0.3,1.3-0.6c1.1-1,2.2-2.1,3.3-3.1c0.7-0.6,1.3-1.2,2.1-1.9c1.2,0.4,1.7,1.5,2,2.7c0.1,0.7,0.6,1.4-0.3,2
			c-0.2,0.1,0,0.8,0.1,1.1c0.3,0.6,0.1,1-0.4,1.5c-0.9,0.9-1.7,1.8-2.5,2.7c0.1,0.1,0.2,0.3,0.3,0.4c0.9-0.6,1.8-1.2,2.7-1.7
			c1,0.5,0.9,1.5,0.5,2.1c-0.9,1.7-2.6,1.2-4.2,0.9c0.6,1,0.4,1.7-0.4,2.3c1.3,2.1,0.7,3.7-1.4,3.9c0.4,2.1-1.4,3.4-3.9,2.9
			c0.1,1.1-0.1,1.2-1.9,1.4c0.6,1.2,0.3,1.8-0.9,2.3c-0.6,0.3-1.1,1-1.6,1.5C34.7,36,34.4,36.5,34,37c-1.9-1.2-3.5-2.6-4.2-5
			c0.7,0.2,1.3,0.4,2,0.6c0.2-0.2,0.5-0.6,0.8-0.8c-0.4-0.2-0.8-0.4-1.2-0.6c0.3-0.4,0.6-0.9,1-1.2c0.3-0.2,0.8-0.2,1.2-0.2
			c0.3,0,0.7,0.3,1,0.4c0-0.1,0.1-0.3,0.1-0.4c-0.7-0.2-1.5-0.4-2.2-0.6c-0.4-0.1-0.9-0.3-1.2-0.6c-0.6-0.4-0.7-1.5-1.8-1.4
			c0-0.5-0.2-1.2,0-1.3c0.4-0.3,1-0.2,1.5-0.2c0.1,0,0.3,0.3,0.4,0.4C31.7,26.1,31.8,26,31.9,26z"/>
	</g>
	<g>
		<path class="st1" d="M26.7,57.8c-1.9-0.4-1.9-2.1-2-3.5c-0.1-1.3,0.2-2.7,0.4-4c0-0.4,0.1-0.8,0-1.1c-0.4-1,0.2-1.6,0.9-2.1
			c-1.2-1.6-1.3-1.9-0.4-2.9c-0.2-1.1-0.7-1.8-1.8-2.2c-0.9-0.3-1.1-1.1-0.8-1.9c0.5-1.4,0.9-1.7,2.3-1.7c0.9,0,1.8-0.8,1.9-1.7
			c1.2-0.2,1.4,0,1.3,1.2c0-0.3,0.1-0.5,0.1-0.8c0-0.3,0.1-0.7,0-0.9c-0.3-0.5-0.5-1-0.8-1.5c0.6-0.2,1.1-0.4,1.8-0.6
			c0,0.7,0,1.1,0,1.5c0.4,0.2,0.8,0.3,1.4,0.6c-0.4,0.6-0.7,1.1-1.1,1.5c0.2,0.3,0.4,0.6,0.6,1c0.6-0.2,1.3-0.2,1.7,0.6
			c0.3,0.7,0,1.3-0.6,1.4c-0.2,0.8-0.3,1.5-0.5,2.2c-0.2,0.7-0.4,1.5-0.6,2.2c-0.1,0.2-0.2,0.4-0.4,0.4c-0.8,0.3-0.7,0.8-0.3,1.4
			c0.3,0.5,0.6,1.1-0.2,1.4c-0.3,0.1-0.8-0.1-1.2-0.1c0.3,0.6,0.8,1.4,1.2,2.2c0.1,0.3,0.2,0.8,0.1,1.1c-0.4,0.7-0.9,1.4-1.5,2.2
			c0.5,0.6,1,1.3,0.6,2.2c0,0.1,0.2,0.3,0.3,0.5c0.4,0.5,0.5,1-0.1,1.5c-0.2,0.1-0.2,0.5-0.4,0.7c-0.3,0.3-0.6,0.6-1,0.9
			c-0.2-0.4-0.5-0.7-0.7-1.1C26.7,58.2,26.8,58,26.7,57.8z"/>
		<path class="st2" d="M26.7,57.8c-1.9-0.4-1.9-2.1-2-3.5c-0.1-1.3,0.2-2.7,0.4-4c0-0.4,0.1-0.8,0-1.1c-0.4-1,0.2-1.6,0.9-2.1
			c-1.2-1.6-1.3-1.9-0.4-2.9c-0.2-1.1-0.7-1.8-1.8-2.2c-0.9-0.3-1.1-1.1-0.8-1.9c0.5-1.4,0.9-1.7,2.3-1.7c0.9,0,1.8-0.8,1.9-1.7
			c1.2-0.2,1.4,0,1.3,1.2c0-0.3,0.1-0.5,0.1-0.8c0-0.3,0.1-0.7,0-0.9c-0.3-0.5-0.5-1-0.8-1.5c0.6-0.2,1.1-0.4,1.8-0.6
			c0,0.7,0,1.1,0,1.5c0.4,0.2,0.8,0.3,1.4,0.6c-0.4,0.6-0.7,1.1-1.1,1.5c0.2,0.3,0.4,0.6,0.6,1c0.6-0.2,1.3-0.2,1.7,0.6
			c0.3,0.7,0,1.3-0.6,1.4c-0.2,0.8-0.3,1.5-0.5,2.2c-0.2,0.7-0.4,1.5-0.6,2.2c-0.1,0.2-0.2,0.4-0.4,0.4c-0.8,0.3-0.7,0.8-0.3,1.4
			c0.3,0.5,0.6,1.1-0.2,1.4c-0.3,0.1-0.8-0.1-1.2-0.1c0.3,0.6,0.8,1.4,1.2,2.2c0.1,0.3,0.2,0.8,0.1,1.1c-0.4,0.7-0.9,1.4-1.5,2.2
			c0.5,0.6,1,1.3,0.6,2.2c0,0.1,0.2,0.3,0.3,0.5c0.4,0.5,0.5,1-0.1,1.5c-0.2,0.1-0.2,0.5-0.4,0.7c-0.3,0.3-0.6,0.6-1,0.9
			c-0.2-0.4-0.5-0.7-0.7-1.1C26.7,58.2,26.8,58,26.7,57.8z"/>
	</g>
	<g>
		<path class="st1" d="M66.3,112.1c-1.8,0-2.9-0.9-3.4-2.8c-0.3-1.1-0.6-2.2-0.8-3.3c-0.4-1.5,1.2-3.8,2.8-3.9
			c1-0.1,1.8,0.4,2.2,1.4c0.5,1.3,0.9,2.7,1.4,4.1c0.1,0.2,0.3,0.4,0.4,0.6c0.3,0.5,1,1.1,0,1.6c0,0,0,0.1,0,0.2
			C68.6,111.5,68,112.1,66.3,112.1z"/>
		<path class="st2" d="M66.3,112.1c-1.8,0-2.9-0.9-3.4-2.8c-0.3-1.1-0.6-2.2-0.8-3.3c-0.4-1.5,1.2-3.8,2.8-3.9
			c1-0.1,1.8,0.4,2.2,1.4c0.5,1.3,0.9,2.7,1.4,4.1c0.1,0.2,0.3,0.4,0.4,0.6c0.3,0.5,1,1.1,0,1.6c0,0,0,0.1,0,0.2
			C68.6,111.5,68,112.1,66.3,112.1z"/>
	</g>
	<g>
		<path class="st1" d="M38.1,75.2c0.4-0.6,0.6-1.2,1-1.6c0.9-0.9,1.9-1.8,3-2.6c0.3-0.2,0.9-0.1,1.3-0.1c0,0.4,0.1,0.8,0,1.1
			c-0.5,1.9-1.9,2.7-3.6,3.3c-0.4,0.1-0.8,0.2-1.3,0.3c0.5,0.8,0,1.1-0.6,1.5c-0.5,0.3-0.9,0.7-1.3,1c-0.3,0.2-0.8,0.3-1.1,0.6
			c-0.5,0.3-0.8,0.8-1.3,0.9c-0.3,0.1-1-0.4-1.1-0.7c-0.1-0.6-0.1-1.5,0.3-1.9c0.5-0.5,1.3-0.8,2.1-1C36.3,75.6,37.2,75.4,38.1,75.2
			z"/>
		<path class="st2" d="M38.1,75.2c0.4-0.6,0.6-1.2,1-1.6c0.9-0.9,1.9-1.8,3-2.6c0.3-0.2,0.9-0.1,1.3-0.1c0,0.4,0.1,0.8,0,1.1
			c-0.5,1.9-1.9,2.7-3.6,3.3c-0.4,0.1-0.8,0.2-1.3,0.3c0.5,0.8,0,1.1-0.6,1.5c-0.5,0.3-0.9,0.7-1.3,1c-0.3,0.2-0.8,0.3-1.1,0.6
			c-0.5,0.3-0.8,0.8-1.3,0.9c-0.3,0.1-1-0.4-1.1-0.7c-0.1-0.6-0.1-1.5,0.3-1.9c0.5-0.5,1.3-0.8,2.1-1C36.3,75.6,37.2,75.4,38.1,75.2
			z"/>
	</g>
	<g>
		<path class="st1" d="M42.8,59.9c-0.9-0.1-1.7-0.2-2.9-0.3c0.3-0.5,0.5-1,0.9-1.2c1.2-0.6,1.5-0.5,2.6,0.9c0.2-0.1,0.5-0.4,0.8-0.4
			c0.7-0.1,1.4-0.4,2-0.2c0.7,0.3,1.5,0.8,1.2,1.9c-0.1,0.3,0,0.5,0,0.8c0,1.1-1.2,2.1-2.3,1.6C43.9,62.4,42.9,61.3,42.8,59.9z"/>
		<path class="st2" d="M42.8,59.9c-0.9-0.1-1.7-0.2-2.9-0.3c0.3-0.5,0.5-1,0.9-1.2c1.2-0.6,1.5-0.5,2.6,0.9c0.2-0.1,0.5-0.4,0.8-0.4
			c0.7-0.1,1.4-0.4,2-0.2c0.7,0.3,1.5,0.8,1.2,1.9c-0.1,0.3,0,0.5,0,0.8c0,1.1-1.2,2.1-2.3,1.6C43.9,62.4,42.9,61.3,42.8,59.9z"/>
	</g>
	<g>
		<path class="st1" d="M26.2,59.8c-0.1,0.2-0.4,0.4-0.3,0.6c0.4,1.7,0.4,1.6-1.1,2.6c-0.3,0.2-0.3,0.7-0.4,1.1
			c0,0.2,0.1,0.4,0.2,0.8C24,65,23.5,65.1,23,65.1c0,0,0,0,0,0c-0.2-0.6-0.3-1.2-0.6-1.8c-0.2-0.5,0-1.4,0.3-2
			c0.6-1.1,1.1-2.4,2.6-2.7c0.3-0.1,0.7,0.1,1,0.1C26.3,59.1,26.2,59.5,26.2,59.8L26.2,59.8z"/>
		<path class="st2" d="M26.2,59.8c-0.1,0.2-0.4,0.4-0.3,0.6c0.4,1.7,0.4,1.6-1.1,2.6c-0.3,0.2-0.3,0.7-0.4,1.1
			c0,0.2,0.1,0.4,0.2,0.8C24,65,23.5,65.1,23,65.1c0,0,0,0,0,0c-0.2-0.6-0.3-1.2-0.6-1.8c-0.2-0.5,0-1.4,0.3-2
			c0.6-1.1,1.1-2.4,2.6-2.7c0.3-0.1,0.7,0.1,1,0.1C26.3,59.1,26.2,59.5,26.2,59.8L26.2,59.8z"/>
	</g>
	<g>
		<path class="st1" d="M49.5,89.4c-0.5,1.1-1,2-1.5,3c-0.2,0.4-0.5,0.9-0.8,1.2c-0.5,0.6-0.9,0.1-1.1-0.3
			C45.4,91.2,47.1,89.1,49.5,89.4z"/>
		<path class="st2" d="M49.5,89.4c-0.5,1.1-1,2-1.5,3c-0.2,0.4-0.5,0.9-0.8,1.2c-0.5,0.6-0.9,0.1-1.1-0.3
			C45.4,91.2,47.1,89.1,49.5,89.4z"/>
	</g>
	<g>
		<path class="st1" d="M48.6,65.5c-0.6-0.4-1.2-0.6-1.3-1c-0.1-0.4,0.3-0.9,0.5-1.4c0-0.1,0.2-0.1,0.2-0.2c0.3-0.6,0.6-1.1,1.3-0.8
			c0.5,0.2,1,1.7,0.7,2.2C49.7,64.8,49.1,65.1,48.6,65.5z"/>
		<path class="st2" d="M48.6,65.5c-0.6-0.4-1.2-0.6-1.3-1c-0.1-0.4,0.3-0.9,0.5-1.4c0-0.1,0.2-0.1,0.2-0.2c0.3-0.6,0.6-1.1,1.3-0.8
			c0.5,0.2,1,1.7,0.7,2.2C49.7,64.8,49.1,65.1,48.6,65.5z"/>
	</g>
	<g>
		<path class="st1" d="M23,65.1c0.1,0.4,0.2,0.7,0.4,1.1c-0.1,0-0.2-0.1-0.3-0.1c-0.3,0.4-0.7,0.8-1,1.2c-0.3,0.3-0.6,0.7-0.8,1
			c-0.3-0.2-0.7-0.5-0.7-0.7c0-0.4,0.3-0.8,0.5-1.2c0.2-0.3,0.4-0.6,0.7-0.8C22.1,65.4,22.6,65.3,23,65.1C23,65.2,23,65.1,23,65.1z"
			/>
		<path class="st2" d="M23,65.1c0.1,0.4,0.2,0.7,0.4,1.1c-0.1,0-0.2-0.1-0.3-0.1c-0.3,0.4-0.7,0.8-1,1.2c-0.3,0.3-0.6,0.7-0.8,1
			c-0.3-0.2-0.7-0.5-0.7-0.7c0-0.4,0.3-0.8,0.5-1.2c0.2-0.3,0.4-0.6,0.7-0.8C22.1,65.4,22.6,65.3,23,65.1C23,65.2,23,65.1,23,65.1z"
			/>
	</g>
	<g>
		<path class="st1" d="M47.2,274.6c-0.2,0.7-0.3,1.2-0.5,1.7c-0.1,0.2-0.3,0.5-0.5,0.5c-0.3,0-0.7-0.1-0.9-0.3
			c-0.3-0.3-0.4-0.8-0.5-1.2c-0.2-0.7,1-1.4,1.8-1.1C46.9,274.4,47.1,274.6,47.2,274.6z"/>
		<path class="st2" d="M47.2,274.6c-0.2,0.7-0.3,1.2-0.5,1.7c-0.1,0.2-0.3,0.5-0.5,0.5c-0.3,0-0.7-0.1-0.9-0.3
			c-0.3-0.3-0.4-0.8-0.5-1.2c-0.2-0.7,1-1.4,1.8-1.1C46.9,274.4,47.1,274.6,47.2,274.6z"/>
	</g>
	<g>
		<path class="st1" d="M55.1,104.1c0.2-0.7,0.3-1.3,0.5-1.8c0.1-0.2,0.5-0.4,0.7-0.4c0.2,0,0.6,0.4,0.6,0.5
			c-0.2,0.8-0.4,1.6-0.7,2.3c-0.1,0.1-0.6,0.3-0.8,0.2C55.3,104.7,55.2,104.3,55.1,104.1z"/>
		<path class="st2" d="M55.1,104.1c0.2-0.7,0.3-1.3,0.5-1.8c0.1-0.2,0.5-0.4,0.7-0.4c0.2,0,0.6,0.4,0.6,0.5
			c-0.2,0.8-0.4,1.6-0.7,2.3c-0.1,0.1-0.6,0.3-0.8,0.2C55.3,104.7,55.2,104.3,55.1,104.1z"/>
	</g>
	<g>
		<path class="st1" d="M45.5,116.4c0.7-1,1.2-1.4,2.4-1c0.3,0.1,0.7,0.5,0.8,0.8c0,0.4-0.2,0.9-0.5,1.1c-0.2,0.1-0.7-0.3-1.1-0.4
			C46.6,116.8,46,116.6,45.5,116.4z"/>
		<path class="st2" d="M45.5,116.4c0.7-1,1.2-1.4,2.4-1c0.3,0.1,0.7,0.5,0.8,0.8c0,0.4-0.2,0.9-0.5,1.1c-0.2,0.1-0.7-0.3-1.1-0.4
			C46.6,116.8,46,116.6,45.5,116.4z"/>
	</g>
	<g>
		<path class="st1" d="M42.4,79.6c-0.2-0.1-0.6-0.3-0.5-0.4c0.1-0.3,0.2-0.7,0.4-1c0.2-0.3,0.4-0.5,0.7-0.7c0.2-0.2,0.4-0.4,0.6-0.4
			c0.2,0,0.5,0.2,0.5,0.4c0.1,0.3,0,0.8-0.1,0.8c-0.7,0.1-0.9,0.7-1.3,1.1C42.6,79.5,42.5,79.5,42.4,79.6z"/>
		<path class="st2" d="M42.4,79.6c-0.2-0.1-0.6-0.3-0.5-0.4c0.1-0.3,0.2-0.7,0.4-1c0.2-0.3,0.4-0.5,0.7-0.7c0.2-0.2,0.4-0.4,0.6-0.4
			c0.2,0,0.5,0.2,0.5,0.4c0.1,0.3,0,0.8-0.1,0.8c-0.7,0.1-0.9,0.7-1.3,1.1C42.6,79.5,42.5,79.5,42.4,79.6z"/>
	</g>
	<g>
		<path class="st1" d="M22.8,42.7c-0.3,1.4-1.1,1.8-2.1,1.2c-0.1-0.1-0.2-0.3-0.3-0.5c0-0.1,0.1-0.4,0.3-0.4
			C21.3,42.9,22,42.8,22.8,42.7z"/>
		<path class="st2" d="M22.8,42.7c-0.3,1.4-1.1,1.8-2.1,1.2c-0.1-0.1-0.2-0.3-0.3-0.5c0-0.1,0.1-0.4,0.3-0.4
			C21.3,42.9,22,42.8,22.8,42.7z"/>
	</g>
	<g>
		<path class="st1" d="M46.9,65.2c0.5,0.5,0.8,0.8,1.1,1.1c-0.4,0.2-0.7,0.6-1.1,0.7c-0.2,0-0.7-0.4-0.7-0.6
			C46.2,66.1,46.5,65.8,46.9,65.2z"/>
		<path class="st2" d="M46.9,65.2c0.5,0.5,0.8,0.8,1.1,1.1c-0.4,0.2-0.7,0.6-1.1,0.7c-0.2,0-0.7-0.4-0.7-0.6
			C46.2,66.1,46.5,65.8,46.9,65.2z"/>
	</g>
	<g>
		<path class="st1" d="M76.1,239c0.1,0.5,0.2,1.1,0.2,1.6c0,0.3-0.3,0.5-0.5,0.8c-0.2-0.3-0.7-0.5-0.6-0.7c0.1-0.6,0.4-1.1,0.6-1.7
			C75.9,239,76,239,76.1,239z"/>
		<path class="st2" d="M76.1,239c0.1,0.5,0.2,1.1,0.2,1.6c0,0.3-0.3,0.5-0.5,0.8c-0.2-0.3-0.7-0.5-0.6-0.7c0.1-0.6,0.4-1.1,0.6-1.7
			C75.9,239,76,239,76.1,239z"/>
	</g>
	<g>
		<path class="st1" d="M45.8,31.1c-0.4,0.3-0.7,0.7-0.8,0.6c-0.4-0.3-0.8-0.7-1.1-1.1c0-0.1,0.4-0.5,0.6-0.7
			C45,30.3,45.3,30.7,45.8,31.1z"/>
		<path class="st2" d="M45.8,31.1c-0.4,0.3-0.7,0.7-0.8,0.6c-0.4-0.3-0.8-0.7-1.1-1.1c0-0.1,0.4-0.5,0.6-0.7
			C45,30.3,45.3,30.7,45.8,31.1z"/>
	</g>
	<g>
		<path class="st1" d="M42.9,35.6c0.7-0.1,1.3-0.2,1.4,0.6c0,0.2-0.4,0.5-0.5,0.5C43,36.7,42.8,36.3,42.9,35.6z"/>
		<path class="st2" d="M42.9,35.6c0.7-0.1,1.3-0.2,1.4,0.6c0,0.2-0.4,0.5-0.5,0.5C43,36.7,42.8,36.3,42.9,35.6z"/>
	</g>
	<g>
		<path class="st1" d="M61.2,28.4c-0.1,0.2-0.3,0.6-0.5,0.7c-0.3,0.1-0.7,0-0.9-0.2c-0.1-0.1,0-0.8,0-0.8c0.3-0.1,0.7,0,1.1,0
			C61,28.1,61.1,28.3,61.2,28.4C61.2,28.4,61.2,28.4,61.2,28.4z"/>
		<path class="st2" d="M61.2,28.4c-0.1,0.2-0.3,0.6-0.5,0.7c-0.3,0.1-0.7,0-0.9-0.2c-0.1-0.1,0-0.8,0-0.8c0.3-0.1,0.7,0,1.1,0
			C61,28.1,61.1,28.3,61.2,28.4C61.2,28.4,61.2,28.4,61.2,28.4z"/>
	</g>
	<g>
		<path class="st1" d="M26.1,59.8c0.2,0,0.5-0.1,0.6,0c0.3,0.2,0.6,0.5,0.8,0.8c-0.2,0.1-0.5,0.4-0.6,0.4c-0.3-0.2-0.6-0.4-0.8-0.7
			C26.1,60.2,26.2,60,26.1,59.8C26.2,59.8,26.1,59.8,26.1,59.8z"/>
		<path class="st2" d="M26.1,59.8c0.2,0,0.5-0.1,0.6,0c0.3,0.2,0.6,0.5,0.8,0.8c-0.2,0.1-0.5,0.4-0.6,0.4c-0.3-0.2-0.6-0.4-0.8-0.7
			C26.1,60.2,26.2,60,26.1,59.8C26.2,59.8,26.1,59.8,26.1,59.8z"/>
	</g>
	<g>
		<path class="st1" d="M56.7,85.8c-0.6,0.2-1.1,0.3-1.5,0.5c0-0.3-0.1-0.7,0-0.9C55.6,84.9,56,85,56.7,85.8z"/>
		<path class="st2" d="M56.7,85.8c-0.6,0.2-1.1,0.3-1.5,0.5c0-0.3-0.1-0.7,0-0.9C55.6,84.9,56,85,56.7,85.8z"/>
	</g>
	<g>
		<path class="st1" d="M21.5,37.2c-0.3,0.5-0.4,0.7-0.6,1.1c-0.3-0.2-0.6-0.3-0.7-0.6c-0.1-0.1,0.1-0.6,0.2-0.6
			C20.7,37.1,21,37.1,21.5,37.2z"/>
		<path class="st2" d="M21.5,37.2c-0.3,0.5-0.4,0.7-0.6,1.1c-0.3-0.2-0.6-0.3-0.7-0.6c-0.1-0.1,0.1-0.6,0.2-0.6
			C20.7,37.1,21,37.1,21.5,37.2z"/>
	</g>
	<g>
		<path class="st1" d="M64.1,71.4c-0.8,1.2-1.6,2.4-2.3,3.5c-0.7,0.4-1.4,0.8-2.1,1.2c-0.1,0-0.1-0.1-0.2-0.1
			c1.5-1.6,2.9-3.1,4.4-4.7C64,71.3,64.1,71.4,64.1,71.4z"/>
		<path class="st2" d="M64.1,71.4c-0.8,1.2-1.6,2.4-2.3,3.5c-0.7,0.4-1.4,0.8-2.1,1.2c-0.1,0-0.1-0.1-0.2-0.1
			c1.5-1.6,2.9-3.1,4.4-4.7C64,71.3,64.1,71.4,64.1,71.4z"/>
	</g>
	<g>
		<path class="st1" d="M69.6,98.7c0.4-0.3,0.8-0.6,1.2-0.9c0.1,0.5,0.2,1,0.3,1.5c0,0.1,0,0.2,0,0.3c-0.4,0.7-0.8,1.4-1.1,2
			C69.8,100.7,69.7,99.7,69.6,98.7z"/>
		<path class="st2" d="M69.6,98.7c0.4-0.3,0.8-0.6,1.2-0.9c0.1,0.5,0.2,1,0.3,1.5c0,0.1,0,0.2,0,0.3c-0.4,0.7-0.8,1.4-1.1,2
			C69.8,100.7,69.7,99.7,69.6,98.7z"/>
	</g>
	<g>
		<path class="st1" d="M61.9,93.7c0.5-0.1,0.8-0.1,1-0.2c-0.1,1-0.1,2-0.2,3c0,0-0.1,0-0.1,0C62.3,95.6,62.1,94.7,61.9,93.7z"/>
		<path class="st2" d="M61.9,93.7c0.5-0.1,0.8-0.1,1-0.2c-0.1,1-0.1,2-0.2,3c0,0-0.1,0-0.1,0C62.3,95.6,62.1,94.7,61.9,93.7z"/>
	</g>
	<g>
		<path class="st1" d="M86.1,41.7c-0.5,0.5-1.1,1.2-1.7,1.7C84.4,42.6,84.8,42.2,86.1,41.7z"/>
		<path class="st2" d="M86.1,41.7c-0.5,0.5-1.1,1.2-1.7,1.7C84.4,42.6,84.8,42.2,86.1,41.7z"/>
	</g>
	<g>
		<path class="st1" d="M58.3,78.8c-0.4-0.3-0.9-0.6-1.4-0.9c0.7-0.3,1.2-0.5,1.8-0.8C58.6,77.7,58.4,78.3,58.3,78.8
			C58.3,78.8,58.3,78.8,58.3,78.8z"/>
		<path class="st2" d="M58.3,78.8c-0.4-0.3-0.9-0.6-1.4-0.9c0.7-0.3,1.2-0.5,1.8-0.8C58.6,77.7,58.4,78.3,58.3,78.8
			C58.3,78.8,58.3,78.8,58.3,78.8z"/>
	</g>
	<g>
		<path class="st1" d="M86.8,36.6c0.1,0.4,0.2,0.9,0.2,0.9c-0.5,0.3-1.1,0.4-1.7,0.4C85.7,37.5,86.2,37.1,86.8,36.6z"/>
		<path class="st2" d="M86.8,36.6c0.1,0.4,0.2,0.9,0.2,0.9c-0.5,0.3-1.1,0.4-1.7,0.4C85.7,37.5,86.2,37.1,86.8,36.6z"/>
	</g>
	<g>
		<path class="st1" d="M58.3,144.4c1-1.9-0.3-3.4-1-5C59.8,140.2,59.5,142.9,58.3,144.4z"/>
		<path class="st2" d="M58.3,144.4c1-1.9-0.3-3.4-1-5C59.8,140.2,59.5,142.9,58.3,144.4z"/>
	</g>
	<g>
		<path class="st1" d="M19.7,137.6c-1.5-0.3-2.9-0.5-3.6-2c0.2-0.5,0.5-1.1,0.8-1.7c0.3-0.8,1.1-1,1.6-0.4c0.9,1,1.5,0.5,2.3,0
			c0.6-0.4,1.4-0.3,2.2-0.5c0.1-0.3,0.1-0.7,0.3-1.2c0.2-0.4,0.5-0.7,0.7-1.2c0.3-0.7,0.6-1.3,0.7-2c0.3-1.1,0.4-2.3,0.8-3.4
			c0.7-1.9,2.4-2.1,4.5-1.8c1.4,0.2,2.3,0.1,2.6-0.7c0.2-0.6,0.3-1.2,0.6-1.8c0.3-0.6,0.7-1.2,1-1.8c0.1-0.1,0.3-0.2,0.4-0.1
			c1.7,1.4,3.3,0.3,4.9-0.4c0.6-0.3,1.2-0.5,1.8-0.8c1.8-0.8,3.5-0.3,5.3,0.2c0.4,0.1,0.9,0.2,1.3,0.1c1.4-0.3,2.5,0.2,2.9,1.6
			c0.3,1,0.4,2.1,0.6,3.3c0.8,0.1,1,0.7,0.9,1.5c-0.1,0.7,0.1,1.1,0.6,1.6c0.8,0.8,1.4,1.8,2,2.8c0.2,0.3,0.3,0.6,0.8,0.5
			c0.8,0,1.9,1.4,2.1,2.4c0.1,0.9-0.2,1.6-1,2c-0.9,0.6-1.8,1.1-2.7,1.7c-0.2,0.1-0.3,0.3-0.6,0.6c1.1-0.5,2-0.9,2.9-1.1
			c0.9-0.2,1.8-0.3,2.6,0c0.6,0.2,1.1,0.9,1.4,1.5c0.6,1.6,1.1,3.3,1.5,5c0.4,1.6-0.4,3.1-0.9,4.5c-0.4,1-1.2,1.7-1.8,2.6
			c-0.6,0.8-1.7,1.2-2.6,0.9c-1.7-0.5-2.5,0-2.6,1.8c0,2.1-1.3,3.8-3.3,4.3c-0.7,0.2-1.7,0.7-1.9-0.8c0-0.2-0.6-0.4-0.9-0.5
			c-0.5-0.2-1.1-0.3-1.6-0.4c-0.1,0-0.4-0.1-0.4,0c-1,0.9-2.1,1.1-3.4,1.1c-0.7,0-1.3,0.5-2,0.5c-0.7,0.1-1.6-1.6-1.4-2.4
			c0.1-0.3,0.3-0.6,0.3-0.8c0-0.4-0.2-0.9-0.4-1.2c-0.1-0.2-0.7,0-1.2,0c-1.5-0.7-1.8-2.3-2.4-3.9c-0.3-0.9-1.1-1.7-1.7-2.5
			c-0.2-0.3-0.6-0.4-0.5-0.2c-0.9,0.7-1.8,1.4-2.7,2.1c-0.3,0.3-0.4,0.6-0.1,1c0.3,0.5,0.4,1.1,0.5,1.7c0,0.3-0.4,0.8-0.7,0.8
			c-0.8,0.2-1,0.6-1,1.3c-0.1,1.5-1.1,2.1-2.5,1.4c-0.4-0.2-0.9-0.3-1.4-0.5c-0.6,0.8-1.5,0.9-2.6,0.3c-0.5-0.3-0.9-0.7-1.2-1.2
			c-0.8-0.9-1.9-1-3-1.1c-0.9-0.1-1.3-0.4-1.3-1.3c0-0.7-0.2-1.2-0.9-1.4c-0.2-0.1-0.4-0.3-0.5-0.5c-0.7-1.6-2.4-2.4-3.4-3.8
			c-0.6-0.9-0.6-1.2,0.3-1.8c0.5-0.3,0.9-0.8,1.4-1.3c0.5-0.5,0.9-1.3,1.9-1c0.8,0.2,1.8,0.3,2.4-0.8
			C18.5,138.3,19.1,138.1,19.7,137.6z"/>
		<path class="st2" d="M19.7,137.6c-1.5-0.3-2.9-0.5-3.6-2c0.2-0.5,0.5-1.1,0.8-1.7c0.3-0.8,1.1-1,1.6-0.4c0.9,1,1.5,0.5,2.3,0
			c0.6-0.4,1.4-0.3,2.2-0.5c0.1-0.3,0.1-0.7,0.3-1.2c0.2-0.4,0.5-0.7,0.7-1.2c0.3-0.7,0.6-1.3,0.7-2c0.3-1.1,0.4-2.3,0.8-3.4
			c0.7-1.9,2.4-2.1,4.5-1.8c1.4,0.2,2.3,0.1,2.6-0.7c0.2-0.6,0.3-1.2,0.6-1.8c0.3-0.6,0.7-1.2,1-1.8c0.1-0.1,0.3-0.2,0.4-0.1
			c1.7,1.4,3.3,0.3,4.9-0.4c0.6-0.3,1.2-0.5,1.8-0.8c1.8-0.8,3.5-0.3,5.3,0.2c0.4,0.1,0.9,0.2,1.3,0.1c1.4-0.3,2.5,0.2,2.9,1.6
			c0.3,1,0.4,2.1,0.6,3.3c0.8,0.1,1,0.7,0.9,1.5c-0.1,0.7,0.1,1.1,0.6,1.6c0.8,0.8,1.4,1.8,2,2.8c0.2,0.3,0.3,0.6,0.8,0.5
			c0.8,0,1.9,1.4,2.1,2.4c0.1,0.9-0.2,1.6-1,2c-0.9,0.6-1.8,1.1-2.7,1.7c-0.2,0.1-0.3,0.3-0.6,0.6c1.1-0.5,2-0.9,2.9-1.1
			c0.9-0.2,1.8-0.3,2.6,0c0.6,0.2,1.1,0.9,1.4,1.5c0.6,1.6,1.1,3.3,1.5,5c0.4,1.6-0.4,3.1-0.9,4.5c-0.4,1-1.2,1.7-1.8,2.6
			c-0.6,0.8-1.7,1.2-2.6,0.9c-1.7-0.5-2.5,0-2.6,1.8c0,2.1-1.3,3.8-3.3,4.3c-0.7,0.2-1.7,0.7-1.9-0.8c0-0.2-0.6-0.4-0.9-0.5
			c-0.5-0.2-1.1-0.3-1.6-0.4c-0.1,0-0.4-0.1-0.4,0c-1,0.9-2.1,1.1-3.4,1.1c-0.7,0-1.3,0.5-2,0.5c-0.7,0.1-1.6-1.6-1.4-2.4
			c0.1-0.3,0.3-0.6,0.3-0.8c0-0.4-0.2-0.9-0.4-1.2c-0.1-0.2-0.7,0-1.2,0c-1.5-0.7-1.8-2.3-2.4-3.9c-0.3-0.9-1.1-1.7-1.7-2.5
			c-0.2-0.3-0.6-0.4-0.5-0.2c-0.9,0.7-1.8,1.4-2.7,2.1c-0.3,0.3-0.4,0.6-0.1,1c0.3,0.5,0.4,1.1,0.5,1.7c0,0.3-0.4,0.8-0.7,0.8
			c-0.8,0.2-1,0.6-1,1.3c-0.1,1.5-1.1,2.1-2.5,1.4c-0.4-0.2-0.9-0.3-1.4-0.5c-0.6,0.8-1.5,0.9-2.6,0.3c-0.5-0.3-0.9-0.7-1.2-1.2
			c-0.8-0.9-1.9-1-3-1.1c-0.9-0.1-1.3-0.4-1.3-1.3c0-0.7-0.2-1.2-0.9-1.4c-0.2-0.1-0.4-0.3-0.5-0.5c-0.7-1.6-2.4-2.4-3.4-3.8
			c-0.6-0.9-0.6-1.2,0.3-1.8c0.5-0.3,0.9-0.8,1.4-1.3c0.5-0.5,0.9-1.3,1.9-1c0.8,0.2,1.8,0.3,2.4-0.8
			C18.5,138.3,19.1,138.1,19.7,137.6z"/>
	</g>
	<g>
		<path class="st1" d="M44.4,140.6c0.2-0.4,0.4-1,0.7-1.6c0.1-0.3,0.5-0.7,0.4-0.9c-0.5-1.1,0.2-1.9,0.6-2.7
			c0.1-0.2,0.2-0.5,0.4-0.8c-1.6,0.4-2.9,1.4-4.3-0.1c0.2,1,0.6,2,0.4,2.8c-0.2,0.9-1,1.6-1.5,2.4c-0.1,0.1-0.1,0.2-0.1,0.3
			c0.1,0.2,0.3,0.5,0.4,0.5C42.4,140.4,43.3,140.5,44.4,140.6z"/>
		<path class="st2" d="M44.4,140.6c0.2-0.4,0.4-1,0.7-1.6c0.1-0.3,0.5-0.7,0.4-0.9c-0.5-1.1,0.2-1.9,0.6-2.7
			c0.1-0.2,0.2-0.5,0.4-0.8c-1.6,0.4-2.9,1.4-4.3-0.1c0.2,1,0.6,2,0.4,2.8c-0.2,0.9-1,1.6-1.5,2.4c-0.1,0.1-0.1,0.2-0.1,0.3
			c0.1,0.2,0.3,0.5,0.4,0.5C42.4,140.4,43.3,140.5,44.4,140.6z"/>
	</g>
	<g>
		<path class="st1" d="M58.3,144.4c1.2-1.5,1.4-4.2-1-5C58.1,141.1,59.4,142.5,58.3,144.4z"/>
		<path class="st2" d="M58.3,144.4c1.2-1.5,1.4-4.2-1-5C58.1,141.1,59.4,142.5,58.3,144.4z"/>
	</g>
	<g>
		<path class="st1" d="M16.8,141.3c0.9,0.4,1.8,0.8,3,1.3c-0.4-0.8-0.5-1.7-0.9-1.9C18.2,140.4,17.3,140.4,16.8,141.3z"/>
		<path class="st2" d="M16.8,141.3c0.9,0.4,1.8,0.8,3,1.3c-0.4-0.8-0.5-1.7-0.9-1.9C18.2,140.4,17.3,140.4,16.8,141.3z"/>
	</g>
	<g>
		<path class="st2" d="M45.1,138.9c0.1-0.3,0.5-0.7,0.4-0.9c-0.5-1.1,0.2-1.9,0.6-2.7c0.1-0.2,0.2-0.5,0.4-0.8
			c-1.6,0.4-2.9,1.4-4.3-0.1c0.2,1,0.6,2,0.4,2.8c-0.2,0.9-1,1.6-1.5,2.4c-0.1,0.1-0.1,0.2-0.1,0.3c0.1,0.2,0.3,0.5,0.4,0.5
			c1,0.1,1.9,0.2,3,0.3C44.6,140.1,44.8,139.5,45.1,138.9z"/>
	</g>
	<g>
		<path class="st1" d="M19.8,142.5c-0.4-0.8-0.5-1.7-0.9-1.9c-0.7-0.3-1.5-0.2-2.1,0.6C17.7,141.7,18.6,142,19.8,142.5z"/>
		<path class="st2" d="M19.8,142.5c-0.4-0.8-0.5-1.7-0.9-1.9c-0.7-0.3-1.5-0.2-2.1,0.6C17.7,141.7,18.6,142,19.8,142.5z"/>
	</g>
</g>
</svg>
