<?xml version="1.0" encoding="UTF-8" standalone="no"?>
<!-- Created with Inkscape (http://www.inkscape.org/) -->

<svg
   xmlns:dc="http://purl.org/dc/elements/1.1/"
   xmlns:cc="http://creativecommons.org/ns#"
   xmlns:rdf="http://www.w3.org/1999/02/22-rdf-syntax-ns#"
   xmlns:svg="http://www.w3.org/2000/svg"
   xmlns="http://www.w3.org/2000/svg"
   xmlns:sodipodi="http://sodipodi.sourceforge.net/DTD/sodipodi-0.dtd"
   xmlns:inkscape="http://www.inkscape.org/namespaces/inkscape"
   width="20.353436mm"
   height="25.25935mm"
   viewBox="0 0 20.353436 25.25935"
   version="1.1"
   id="svg8"
   inkscape:version="0.92.2 (5c3e80d, 2017-08-06)"
   sodipodi:docname="ammonia.svg">
  <defs
     id="defs2" />
  <sodipodi:namedview
     id="base"
     pagecolor="#ffffff"
     bordercolor="#666666"
     borderopacity="1.0"
     inkscape:pageopacity="0.0"
     inkscape:pageshadow="2"
     inkscape:zoom="0.98994949"
     inkscape:cx="66.040527"
     inkscape:cy="-264.24914"
     inkscape:document-units="mm"
     inkscape:current-layer="layer1"
     showgrid="false"
     inkscape:window-width="1280"
     inkscape:window-height="995"
     inkscape:window-x="-9"
     inkscape:window-y="-9"
     inkscape:window-maximized="1" />
  <metadata
     id="metadata5">
    <rdf:RDF>
      <cc:Work
         rdf:about="">
        <dc:format>image/svg+xml</dc:format>
        <dc:type
           rdf:resource="http://purl.org/dc/dcmitype/StillImage" />
        <dc:title></dc:title>
      </cc:Work>
    </rdf:RDF>
  </metadata>
  <g
     inkscape:label="Layer 1"
     inkscape:groupmode="layer"
     id="layer1"
     transform="translate(-0.42843688,-0.20415683)">
    <path
       style="fill:none;stroke:#000000;stroke-width:0.04349019px;stroke-linecap:butt;stroke-linejoin:miter;stroke-opacity:1"
       d="M 12.550406,0.22590193 H 5.9435561 l 0.81315,0.91141997 -0.10164,9.2660701 -5.64273,10.68373 c -1.21111003,2.40761 -0.20086003,4.35185 0.56054,4.35464 H 19.563826 c 0.89214,-0.46005 1.66095,-2.64082 0.86036,-4.74584 l -6.28342,-10.60397 -0.0657,-8.9899101 0.7115,-0.80399997 z"
       id="path3699"
       inkscape:connector-curvature="0"
       sodipodi:nodetypes="cccccccccccc" />
    <path
       style="fill:none;stroke:#000000;stroke-width:0.04349019px;stroke-linecap:butt;stroke-linejoin:miter;stroke-opacity:1"
       d="m 3.8608461,15.799432 13.7277399,0.0537"
       id="path3701"
       inkscape:connector-curvature="0" />
    <path
       style="fill:#ff00ff;stroke-width:0.04393173"
       d="m 1.4344061,25.363892 c -0.41939,-0.15326 -0.76571003,-0.72746 -0.89859003,-1.48987 -0.0721,-0.41397 -0.0677,-0.77797 0.0156,-1.26456 0.14416,-0.84233 0.12505,-0.80129 2.20995003,-4.7466 l 1.07542,-2.03505 4.38693,0.0326 c 2.4127999,0.0179 5.4963399,0.036 6.8522899,0.0403 l 2.46537,0.008 1.43374,2.42147 c 0.78856,1.33181 1.45575,2.4834 1.48264,2.5591 0.2304,0.64848 0.31595,1.6507 0.20471,2.39799 -0.12426,0.83466 -0.49074,1.62124 -0.91155,1.95643 l -0.21459,0.17093 -8.99707,-0.006 c -4.9483799,-0.003 -9.0455799,-0.0232 -9.1048699,-0.0449 z"
       id="path4508"
       inkscape:connector-curvature="0" />
    <path
       style="fill:#3da02c;stroke-width:0.04393173;fill-opacity:1"
       d="m 6.0163061,25.361072 -4.65378,-0.0273 -0.14722,-0.11773 c -0.081,-0.0647 -0.22942003,-0.25213 -0.32988003,-0.4164 -0.38667,-0.63229 -0.47865,-1.52846 -0.25753,-2.50938 0.12654,-0.56137 0.27321,-0.86462 2.05354003,-4.24561 l 1.16071,-2.2043 3.28516,0.034 c 1.80683,0.0187 4.8874899,0.035 6.8458999,0.0362 l 3.56075,0.002 0.55702,0.94573 c 1.90128,3.22809 2.27756,3.87905 2.3561,4.07602 0.21136,0.53004 0.30004,1.75366 0.17788,2.45452 -0.13353,0.76617 -0.51254,1.53779 -0.91138,1.85548 l -0.21317,0.1698 -4.41516,-0.0129 c -2.42834,-0.007 -6.5093599,-0.0252 -9.0689399,-0.0403 z"
       id="path4510"
       inkscape:connector-curvature="0" />
    <path
       style="opacity:0.82999998;fill:none;fill-opacity:1;stroke-width:0.04393173"
       d="m 5.2436761,25.361052 -3.88115,-0.0273 -0.14463,-0.11575 c -0.20274,-0.16227 -0.47335003,-0.61278 -0.57558003,-0.95823 -0.17296,-0.58448 -0.17972,-1.18988 -0.0218,-1.94841 0.11517,-0.553 0.28916,-0.91111 2.24742003,-4.6257 l 0.97416,-1.84787 3.7164,0.0353 c 2.04402,0.0194 5.1246699,0.0354 6.8458999,0.0355 l 3.12951,2.2e-4 1.10025,1.86608 c 1.39813,2.37129 1.77781,3.03694 1.84806,3.23996 0.20069,0.58 0.2605,1.8179 0.12082,2.50071 -0.14791,0.72302 -0.47501,1.37019 -0.86534,1.71207 l -0.21316,0.18671 -5.19989,-0.013 c -2.85993,-0.007 -6.9463899,-0.0252 -9.0810199,-0.0403 z"
       id="path4512"
       inkscape:connector-curvature="0" />
  </g>
</svg>